<svg xmlns="http://www.w3.org/2000/svg" viewBox="0 0 24 24" fill="none">
  <path d="M8 2C6.5 2 5 3.5 5 6c0 1.5.5 2.5 1 4l1 3h4l1-3c.5-1.5 1-2.5 1-4 0-2.5-1.5-4-3-4H8z" stroke="#0E365A" stroke-width="1.5" stroke-linecap="round" stroke-linejoin="round"/>
  <path d="M9 13v5M11 13v4" stroke="#0E365A" stroke-width="1.5" stroke-linecap="round"/>
  <path d="M9 18c0 1.5-.5 3-1 4M11 17c.5 2 1 3.5 1 5" stroke="#0E365A" stroke-width="1.5" stroke-linecap="round"/>
  <path d="M15 7l2 2-2 2M15 9h4" stroke="#0E365A" stroke-width="1.5" stroke-linecap="round" stroke-linejoin="round"/>
</svg>
