<svg xmlns="http://www.w3.org/2000/svg" viewBox="0 0 24 24" fill="none">
  <path d="M4 8C4 6 5.5 5 7 5h10c1.5 0 3 1 3 3v1c0 2-1.5 3-3 3H7C5.5 12 4 11 4 9V8z" stroke="#0E365A" stroke-width="1.5" stroke-linecap="round" stroke-linejoin="round"/>
  <rect x="6" y="7.5" width="2.5" height="3" rx=".5" stroke="#0E365A" stroke-width="1.2"/>
  <rect x="10.75" y="7.5" width="2.5" height="3" rx=".5" stroke="#0E365A" stroke-width="1.2"/>
  <rect x="15.5" y="7.5" width="2.5" height="3" rx=".5" stroke="#0E365A" stroke-width="1.2"/>
  <path d="M4 9h2.5M8.5 9h2.25M13.25 9h2.25M18 9h2" stroke="#0E365A" stroke-width="1.2" stroke-linecap="round"/>
  <path d="M4 15C4 13.5 5.5 13 7 13h10c1.5 0 3 .5 3 2" stroke="#0E365A" stroke-width="1.5" stroke-linecap="round"/>
</svg>
