<svg xmlns="http://www.w3.org/2000/svg" viewBox="0 0 24 24" fill="none">
  <path d="M8 3C6.5 3 4 4.5 4 7.5c0 2 .8 3.2 1.4 5.2.6 2 .8 4.5 1.8 4.5.7 0 .9-.8 1.4-1.8.5-1 1-1.8 2-1.8s1.5.8 2 1.8c.5 1 .7 1.8 1.4 1.8 1 0 1.2-2.5 1.8-4.5.6-2 1.4-3.2 1.4-5.2C17 4.5 14.5 3 13 3c-1 0-1.8.5-2.5 1C10 3.5 9 3 8 3z" stroke="#0E365A" stroke-width="1.5" stroke-linecap="round" stroke-linejoin="round"/>
  <path d="M19 2l.5 1.5L21 4l-1.5.5L19 6l-.5-1.5L17 4l1.5-.5L19 2z" stroke="#0E365A" stroke-width="1.3" stroke-linecap="round" stroke-linejoin="round"/>
  <path d="M21 9l.3.9.9.3-.9.3-.3.9-.3-.9-.9-.3.9-.3.3-.9z" stroke="#0E365A" stroke-width="1.2" stroke-linecap="round" stroke-linejoin="round"/>
</svg>
