<?xml version="1.0" encoding="utf-8"?>
<!-- Generator: Adobe Illustrator 19.0.0, SVG Export Plug-In . SVG Version: 6.00 Build 0)  -->
<svg version="1.1" id="Layer_1" xmlns="http://www.w3.org/2000/svg" xmlns:xlink="http://www.w3.org/1999/xlink" x="0px" y="0px"
	 viewBox="0 0 500 500" style="enable-background:new 0 0 500 500;" xml:space="preserve">
<style type="text/css">
	.st0{fill:#80BA27;}
	.st1{fill:#006A5C;}
	.st2{fill:#019E93;}
</style>
<g id="XMLID_1_">
	<path id="XMLID_3_" class="st0" d="M102.6,227c0.4-0.8,1.5-0.9,2.1-0.3c1.3,1,2,2.5,2.5,4c1,2.9,1.1,6.3-0.4,9
		c-0.7,1.6-1.9,2.9-3.2,4c-6.9,6.1-15.1,10.6-23.4,14.4c-0.4,0.2-0.9,0.3-1.4,0.3c0.3-0.7,1-1.2,1.5-1.7c4.4-4.5,8.4-9.4,12.1-14.5
		C96.1,237.3,99.6,232.3,102.6,227z"/>
	<path id="XMLID_4_" class="st1" d="M148,231.4c4.1-1.9,8.7-2.4,13.2-1.9c3.1,0.3,6.1,1.2,8.7,2.7c1.7,1,3.3,2.3,4.8,3.7
		c-2,2.4-4,4.7-6.1,7c-2.8-2.5-6.2-4.6-10.1-4.8c-3.7-0.3-7.6,1.3-10,4.1c-4.9,5.6-4.3,15.2,1.6,20c3.1,2.6,7.4,3.2,11.2,2.2
		c2.9-0.7,5.4-2.6,7.6-4.6c2,2,4,4.1,6,6.1c-1.9,2.1-4.1,4-6.6,5.3c-3.3,1.7-7,2.4-10.7,2.4c-4.7,0.1-9.4-1.3-13.3-4
		c-4.5-3.2-7.6-8.3-8.6-13.7c-0.8-4.6-0.4-9.5,1.6-13.8C139.4,237.4,143.2,233.5,148,231.4z"/>
	<path id="XMLID_7_" class="st1" d="M383.3,229.7c1.5,0,2.9,0,4.4,0c0,14.3,0,28.7,0,43c-1.5,0-2.9,0-4.4,0c0-1.6,0-3.2,0-4.7
		c-1.1,1.2-2.3,2.4-3.7,3.3c-3.5,2.2-8,2.7-11.9,1.4c-3.5-1.1-6.6-3.7-8.4-7c-1.7-3-2.2-6.6-1.9-10c0.4-4.6,2.8-9,6.6-11.6
		c3.6-2.5,8.4-3.3,12.5-2c2.7,0.8,5,2.5,6.7,4.6C383.3,241.1,383.3,235.4,383.3,229.7 M370.1,246.1c-2.1,0.4-4,1.5-5.4,3.1
		c-2.6,3-3.1,7.2-2.5,11c0.5,2.8,2,5.4,4.3,7c2.2,1.6,5.1,2.3,7.7,1.8c2.9-0.5,5.5-2.2,7.1-4.7c3-4.3,2.7-10.6-0.7-14.6
		C378.1,246.7,373.9,245.2,370.1,246.1z"/>
	<path id="XMLID_8_" class="st1" d="M421.8,230c0.8-0.5,1.8-0.4,2.7-0.3c0,0.4-0.1,0.8-0.1,1.2c-0.6,0-1.5-0.4-1.9,0.3
		c0,0.7,1,0.7,1.5,1.1c1.1,0.5,1.2,2,0.3,2.8c-0.8,0.8-2.1,0.7-3.2,0.6c0-0.4,0-0.9,0.1-1.3c0.6,0.1,1.2,0.3,1.7,0.1
		c0.3-0.2,0.5-0.6,0.2-0.9c-0.6-0.4-1.3-0.5-1.8-1C420.7,231.8,420.9,230.5,421.8,230z"/>
	<path id="XMLID_9_" class="st1" d="M426.1,229.7c0.5,0,1.1,0,1.6,0c0.3,1,0.6,2,0.9,3l0.2,0.1c0.5-1,0.7-2.1,1.1-3.1
		c0.5,0,1.1,0,1.6,0c0.3,2,0.6,4,1,6c-0.5,0-1,0-1.5,0c-0.1-1-0.3-1.9-0.4-2.9l-0.3,0.1c-0.3,0.9-0.6,1.9-0.8,2.8
		c-0.5,0-0.9,0-1.4,0c-0.3-1-0.7-2-0.9-3.1c0.3-0.5-0.5-0.5-0.2,0c0,1-0.3,2.1-0.4,3.1c-0.5,0-1,0-1.4,0
		C425.4,233.7,425.8,231.7,426.1,229.7z"/>
	<path id="XMLID_10_" class="st1" d="M279.1,232.8c3.9-2,8.5-2.5,12.9-1.8c3.1,0.4,6.1,1.6,8.7,3.4c1.5,1,2.9,2.2,4.2,3.5
		c-1.1,1.1-2.2,2.3-3.3,3.4c-1.2-1.2-2.5-2.4-3.9-3.3c-3.5-2.4-8-3.3-12.2-2.6c-3.8,0.6-7.4,2.8-9.7,5.9c-2,2.7-3.1,6-3.3,9.4
		c-0.3,4.3,0.8,8.8,3.3,12.2c2.4,3.3,6.3,5.6,10.4,6.2c3,0.3,6.2,0,8.9-1.3c2.6-1.3,4.8-3.1,6.8-5.2c1.1,1,2.1,2.1,3.2,3.1
		c-2.4,2.4-5,4.6-8.1,6c-3.6,1.6-7.6,2.1-11.4,1.6c-4.7-0.5-9.2-2.8-12.4-6.3c-5.5-6-7-15.1-4.2-22.7
		C270.8,239.4,274.4,235.1,279.1,232.8z"/>
	<path id="XMLID_11_" class="st1" d="M394,230.8c1.7,0,3.4,0,5.1,0c0,1.8,0,3.6,0,5.4c-1.7,0-3.4,0-5.1,0
		C394,234.4,393.9,232.6,394,230.8z"/>
	<path id="XMLID_12_" class="st1" d="M407.7,232.9c1.5,0,3,0,4.5,0c0,3.1,0,6.2,0,9.2c3.4,0,6.8,0,10.1,0c0,1.4,0,2.8,0,4.2
		c-3.4,0-6.8,0-10.2,0c0,6.1,0,12.1,0,18.2c0,1.2,0.3,2.6,1.4,3.4c1.4,1,3.3,1.2,4.9,0.9c1.3-0.2,2.5-0.8,3.7-1.3c0,1.5,0,2.9,0,4.4
		c-1.7,0.8-3.6,1.4-5.5,1.3c-2.7,0.1-5.7-0.9-7.3-3.2c-1.2-1.6-1.6-3.7-1.6-5.7c0-6,0-12,0-18c-1.4,0-2.8,0-4.1,0c0-1.4,0-2.8,0-4.2
		c1.4,0,2.8,0,4.1,0C407.7,239.1,407.7,236,407.7,232.9z"/>
	<path id="XMLID_13_" class="st1" d="M224,240.8c1.7-1.1,3.8-1.4,5.9-1.4c0.1,3.3,0,6.5,0,9.8c-2.7-0.1-5.7,0.6-7.6,2.7
		c-2.2,2.3-2.7,5.6-2.8,8.6c0,4.1,0,8.3,0,12.4c-3.1,0-6.2,0-9.3,0c0-11,0-21.9,0-32.9c3.1,0,6.2,0,9.3,0c0,2.1,0,4.2,0,6.3
		C220.5,244.2,221.9,242.1,224,240.8z"/>
	<path id="XMLID_16_" class="st1" d="M237.3,242.5c2.8-2,6.2-3.1,9.7-3c3.7,0,7.5,1.1,10.2,3.6c3,2.7,4.7,6.6,5.3,10.5
		c0.3,2,0.4,4.1,0.1,6.2c-7.6,0-15.2,0-22.8,0c0.4,2,1.5,4,3.3,5.1c2,1.3,4.4,1.4,6.7,1.1c2.3-0.4,4.3-1.7,5.9-3.2
		c1.8,1.6,3.6,3.2,5.4,4.8c-2.4,3-5.8,5.1-9.5,5.8c-4.3,0.8-8.9,0.3-12.8-1.8c-3.3-1.8-5.9-4.7-7.2-8.2c-1.3-3.4-1.5-7.1-0.8-10.7
		C231.7,248.6,234,244.9,237.3,242.5 M242.3,248.7c-1.5,1.4-2.2,3.3-2.6,5.2c4.6,0,9.3,0,13.9,0c-0.3-2.5-1.6-5.1-4-6.3
		C247.3,246.5,244.2,246.9,242.3,248.7z"/>
	<path id="XMLID_19_" class="st1" d="M179,242.4c4.9-2.3,10.4-3,15.7-2.5c3.1,0.3,6.3,1.5,8.4,3.8c1.6,1.7,2.5,3.9,2.9,6.1
		c0.5,2.3,0.3,4.7,0.4,7c0,5.4,0,10.7,0,16.1c-3,0-6.1,0-9.1,0c0-1.1,0-2.2,0-3.3c-0.7,0.5-1.3,1.2-2.1,1.7
		c-3.1,2.1-7.1,2.6-10.7,1.9c-3-0.6-6-2.4-7.3-5.2c-1-2-1.1-4.3-0.9-6.5c0.3-2.5,1.7-4.9,3.9-6.3c2.7-1.8,6-2.3,9.1-2.3
		c2.8,0,5.5,0.4,8.1,1.3c0.1-1.9-0.4-4-2-5.1c-1.9-1.4-4.5-1.5-6.8-1.3c-2.5,0.1-4.9,0.9-7.3,1.7C180.6,247.2,179.8,244.8,179,242.4
		 M189.7,258.7c-1.3,0.2-2.6,0.7-3.4,1.7c-1.4,1.6-1.3,4.4,0.5,5.7c1.5,1.1,3.6,1.2,5.4,0.9c2.1-0.3,4.2-1.5,5-3.5
		c0.5-1.2,0.4-2.4,0.4-3.7C195.1,258.7,192.3,258.3,189.7,258.7z"/>
	<path id="XMLID_22_" class="st1" d="M333,243.7c4.9-3.3,12-2.9,16.4,1.1c3.2,2.8,4.9,7.1,5.1,11.4c0.1,1.1,0.1,2.2-0.2,3.2
		c-7.9,0-15.8,0-23.8,0c0.4,3.3,2.2,6.4,5,8.1c2.2,1.4,4.9,1.8,7.4,1.4c3.2-0.4,5.9-2.4,8-4.7c1.1,0.9,2.1,1.9,3.2,2.8
		c-1.5,1.7-3.2,3.2-5.1,4.3c-2.3,1.5-5.2,2.1-7.9,2c-3.4,0.1-6.9-1.1-9.5-3.3c-3.2-2.5-5.1-6.4-5.5-10.4c-0.3-2.6-0.1-5.3,0.7-7.8
		C327.8,248.6,330,245.6,333,243.7 M336.1,246.8c-3.1,1.7-5,5.1-5.5,8.5c6.4,0,12.8,0,19.2,0c-0.3-1.9-0.9-3.9-1.9-5.5
		c-1.2-1.9-3.1-3.3-5.3-3.8C340.4,245.5,338,245.7,336.1,246.8z"/>
	<path id="XMLID_23_" class="st1" d="M322.7,241.9c1.1-0.2,2.2-0.1,3.3-0.1c0,1.6,0,3.1,0,4.7c-2.8-0.1-5.8,0.5-8,2.3
		c-3.2,2.5-4.7,6.7-4.8,10.7c0,4.4,0,8.9,0,13.3c-1.5,0-2.9,0-4.4,0c0-10.2,0-20.4,0-30.6c1.5,0,2.9,0,4.4,0c0,1.9,0,3.8,0,5.7
		c0.5-0.4,0.8-0.9,1.3-1.4C316.6,244,319.6,242.3,322.7,241.9z"/>
	<path id="XMLID_24_" class="st1" d="M394.3,242.2c1.5,0,2.9,0,4.4,0c0,10.2,0,20.4,0,30.6c-1.5,0-2.9,0-4.4,0
		C394.3,262.5,394.3,252.3,394.3,242.2z"/>
	<path id="XMLID_25_" class="st1" d="M108.7,244.4L108.7,244.4L108.7,244.4z"/>
	<path id="XMLID_26_" class="st1" d="M118.1,249.3c0-0.1,0.1-0.3,0.2-0.4c0,0.1,0,0.3,0,0.4L118.1,249.3z"/>
	<path id="XMLID_27_" class="st1" d="M122.6,256.5c1-0.4,2.3-0.5,2.9,0.5c0.7,1.1,0.4,2.5,0.2,3.8c-0.8,3-2.6,5.8-5,7.7
		c-2.1,1.7-4.8,2.5-7.4,3c-3.5,0.7-7.2,0.8-10.8,1c-6.1,0.1-12.3-0.3-18.3-1.3c-5.4-0.9-10.9-2.3-15.8-4.7c-0.4-0.1-0.6-0.4-0.9-0.7
		c0.6-0.5,1.4-0.2,2.1-0.2c7.2,0.3,14.4,0,21.5-0.9c4.9-0.6,9.7-1.7,14.5-2.9C111.3,260.2,117,258.5,122.6,256.5z"/>
	<path id="XMLID_28_" class="st1" d="M106,258.2c0.1,0,0.3-0.1,0.4-0.2l0,0.2l-0.2,0.1L106,258.2z"/>
	<path id="XMLID_29_" class="st1" d="M104.6,258.6c0.1,0,0.3-0.1,0.4-0.2l0,0.2C104.9,258.6,104.7,258.6,104.6,258.6z"/>
	<path id="XMLID_30_" class="st1" d="M103,259.1c0.1,0,0.3-0.1,0.4-0.2l0,0.2C103.3,259.1,103.1,259.1,103,259.1z"/>
	<path id="XMLID_31_" class="st1" d="M101.3,259.5c0.1,0,0.3-0.1,0.4-0.2l0,0.2l-0.2,0.1L101.3,259.5z"/>
	<path id="XMLID_32_" class="st1" d="M100.4,259.8c0.1,0,0.3-0.1,0.4-0.2l0,0.2C100.7,259.8,100.5,259.8,100.4,259.8z"/>
	<path id="XMLID_33_" class="st1" d="M99.5,260c0.1,0,0.3-0.1,0.4-0.2l0,0.2C99.8,260.1,99.6,260.1,99.5,260z"/>
	<path id="XMLID_34_" class="st1" d="M77.6,261.6l0.2-0.1l0.2,0.1c-0.1,0.1-0.3,0.2-0.4,0.2L77.6,261.6z"/>
	<path id="XMLID_35_" class="st2" d="M426.9,232.6c-0.3-0.5,0.5-0.5,0.2,0H426.9z"/>
	<path id="XMLID_36_" class="st2" d="M114.9,239.9c0.6-0.5,1.5-0.7,2.2-0.4c1.1,0.6,1.4,1.8,1.6,2.9c0.3,2.2,0.2,4.5-0.5,6.5
		c0,0.1-0.1,0.3-0.2,0.4c0.1,0.3-0.1,0.6-0.2,0.9c-0.4,0.9-0.8,1.8-1.5,2.5c-2.6,2.8-6.2,4.1-9.7,5.2l-0.2,0c-0.1,0-0.3,0.1-0.4,0.2
		c-0.3,0.2-0.6,0.4-1,0.3c-0.1,0-0.3,0.1-0.4,0.2c-0.4,0.2-0.8,0.4-1.2,0.3c-0.1,0-0.3,0.1-0.4,0.2c-0.4,0.2-0.8,0.4-1.2,0.3
		c-0.1,0-0.3,0.1-0.4,0.2l-0.2,0.2l-0.3-0.1c-0.1,0-0.3,0.1-0.4,0.2l-0.2,0.2l-0.3-0.1c-0.1,0-0.3,0.1-0.4,0.2
		c-0.4,0.2-0.9,0.3-1.3,0.4c-7.1,1.7-14.4,2.6-21.7,3.1c-0.9,0.1-1.7,0.1-2.6,0c0-0.1,0-0.4,0-0.5c1.3-0.4,2.5-1,3.7-1.2
		c0.1-0.1,0.3-0.2,0.4-0.2c0.5-0.3,1.1-0.5,1.7-0.7c5-2,9.9-4.3,14.6-6.9c5.1-2.8,9.7-6.3,14.4-9.6l0,0
		C110.8,242.8,112.9,241.4,114.9,239.9z"/>
</g>
</svg>
