<svg xmlns="http://www.w3.org/2000/svg" xmlns:xlink="http://www.w3.org/1999/xlink" width="180" zoomAndPan="magnify" viewBox="0 0 135 135.000003" height="180" preserveAspectRatio="xMidYMid meet" version="1.0"><defs><clipPath id="47ef94466c"><path d="M 0.496094 0 L 134.503906 0 L 134.503906 134.007812 L 0.496094 134.007812 Z M 0.496094 0 " clip-rule="nonzero"/></clipPath></defs><g clip-path="url(#47ef94466c)"><path fill="#ffffff" d="M 0.496094 0 L 134.503906 0 L 134.503906 134.007812 L 0.496094 134.007812 Z M 0.496094 0 " fill-opacity="1" fill-rule="nonzero"/><path fill="#ffffff" d="M 0.496094 0 L 134.503906 0 L 134.503906 134.007812 L 0.496094 134.007812 Z M 0.496094 0 " fill-opacity="1" fill-rule="nonzero"/></g><path fill="#34659b" d="M 47.753906 6.417969 C 47.820312 6.441406 47.886719 6.460938 47.957031 6.484375 C 50.320312 7.242188 52.648438 8.082031 54.976562 8.9375 C 55.601562 9.167969 56.226562 9.394531 56.851562 9.621094 L 57.667969 9.917969 C 58.816406 10.339844 59.964844 10.757812 61.113281 11.179688 L 61.269531 11.238281 C 61.519531 11.328125 61.765625 11.417969 62.015625 11.511719 C 67.601562 13.558594 73.328125 15.410156 79.234375 16.261719 L 79.46875 16.296875 C 81.097656 16.539062 82.746094 16.621094 84.390625 16.730469 C 82.230469 18.46875 78.226562 18.964844 75.5625 19.386719 C 74.757812 19.503906 73.949219 19.605469 73.140625 19.699219 L 72.90625 19.726562 C 66.578125 20.433594 60.035156 19.519531 50.042969 16.378906 C 47.777344 15.5625 45.488281 14.867188 43.144531 14.308594 L 42.855469 14.238281 C 40.800781 13.753906 38.648438 13.363281 36.53125 13.355469 L 36.273438 13.351562 C 36.09375 13.351562 35.917969 13.351562 35.738281 13.351562 C 35.46875 13.351562 35.203125 13.347656 34.933594 13.347656 C 32.175781 13.332031 29.546875 13.898438 27.132812 15.257812 C 26.328125 15.71875 25.625 16.257812 24.945312 16.886719 L 24.730469 17.082031 C 23.910156 17.875 23.269531 18.804688 22.679688 19.777344 L 22.59375 19.914062 C 20.941406 22.613281 19.914062 26.183594 19.78125 29.347656 C 19.777344 29.554688 19.773438 29.761719 19.773438 29.96875 L 19.773438 30.199219 C 19.761719 31.84375 19.773438 33.457031 20.023438 35.085938 L 20.070312 35.398438 C 20.511719 38.390625 21.242188 41.316406 22.054688 44.226562 L 22.101562 44.398438 C 22.503906 45.835938 22.945312 47.257812 23.410156 48.679688 C 23.535156 49.054688 23.660156 49.433594 23.78125 49.808594 C 25 53.542969 25 53.542969 26.257812 57.265625 C 26.800781 58.855469 27.332031 60.445312 27.839844 62.042969 C 27.917969 62.28125 27.992188 62.519531 28.070312 62.753906 C 32.195312 75.589844 32.195312 75.589844 32.054688 79.6875 C 31.882812 79.515625 31.820312 79.382812 31.722656 79.160156 L 31.617188 78.929688 L 31.507812 78.683594 C 30.90625 77.355469 30.25 76.070312 29.546875 74.796875 C 29.371094 74.472656 29.199219 74.148438 29.03125 73.824219 C 28.660156 73.109375 28.265625 72.414062 27.855469 71.71875 C 27.558594 71.21875 27.273438 70.714844 26.996094 70.203125 C 26.648438 69.5625 26.285156 68.933594 25.914062 68.308594 C 25.792969 68.109375 25.671875 67.90625 25.554688 67.703125 C 24.042969 65.140625 22.507812 62.585938 20.910156 60.074219 C 20.671875 59.699219 20.4375 59.320312 20.203125 58.941406 C 19.75 58.199219 19.28125 57.46875 18.804688 56.742188 C 18.496094 56.269531 18.191406 55.792969 17.894531 55.3125 C 17.667969 54.949219 17.4375 54.589844 17.207031 54.230469 L 17.09375 54.058594 C 16.71875 53.484375 16.34375 52.910156 15.964844 52.335938 C 14.429688 50.007812 12.996094 47.65625 11.746094 45.164062 L 11.621094 44.921875 C 10.585938 42.859375 9.746094 40.707031 9.011719 38.523438 L 8.929688 38.277344 C 7.183594 33.046875 6.472656 27.308594 7.515625 21.855469 C 7.808594 20.449219 8.242188 19.078125 8.777344 17.746094 L 8.84375 17.574219 C 9.621094 15.667969 10.722656 13.917969 12.058594 12.355469 L 12.265625 12.105469 C 13.121094 11.078125 14.050781 10.132812 15.101562 9.308594 C 15.203125 9.226562 15.300781 9.144531 15.402344 9.0625 C 16.007812 8.558594 16.621094 8.089844 17.289062 7.667969 L 17.617188 7.457031 C 20.894531 5.332031 24.492188 3.964844 28.382812 3.527344 L 28.59375 3.503906 C 34.921875 2.792969 41.367188 4.378906 47.753906 6.417969 " fill-opacity="1" fill-rule="nonzero"/><path fill="#34659b" d="M 17.367188 62.113281 C 17.648438 62.386719 17.914062 62.671875 18.164062 62.972656 L 18.277344 63.105469 C 18.667969 63.570312 19.035156 64.050781 19.398438 64.535156 L 19.53125 64.707031 C 20.0625 65.414062 20.589844 66.117188 21.109375 66.832031 L 21.222656 66.992188 C 21.929688 67.976562 22.605469 68.980469 23.277344 69.988281 L 23.410156 70.191406 C 24.125 71.261719 24.824219 72.339844 25.492188 73.4375 L 25.597656 73.613281 C 25.960938 74.207031 26.3125 74.8125 26.65625 75.417969 C 26.804688 75.683594 26.960938 75.945312 27.117188 76.207031 C 27.414062 76.703125 27.691406 77.195312 27.945312 77.714844 C 28.101562 78.035156 28.269531 78.347656 28.4375 78.664062 C 31.847656 85.125 34.003906 91.828125 35.617188 101.410156 L 35.695312 101.875 C 35.808594 102.570312 35.921875 103.269531 36.035156 103.964844 C 36.449219 106.527344 36.867188 109.105469 37.511719 111.621094 L 37.558594 111.8125 C 37.863281 113.007812 38.230469 114.164062 38.695312 115.308594 L 38.78125 115.527344 C 39.566406 117.445312 40.726562 119.246094 42.371094 120.535156 C 43.519531 121.414062 44.875 122.171875 46.304688 122.453125 C 47.007812 122.535156 47.648438 122.425781 48.304688 122.171875 C 49.824219 121.492188 51 120.09375 51.960938 118.78125 C 54.578125 115.136719 56.453125 110.882812 58.066406 106.714844 L 58.191406 106.390625 C 59.214844 103.757812 60.1875 101.105469 61.113281 98.433594 L 61.183594 98.230469 C 62.496094 94.4375 63.714844 90.613281 64.902344 86.777344 C 65.234375 85.710938 65.570312 84.640625 65.914062 83.578125 C 66.089844 83.042969 66.261719 82.507812 66.429688 81.972656 C 67.953125 77.105469 67.953125 77.105469 68.84375 75.3125 L 68.945312 75.109375 C 69.398438 74.199219 69.886719 73.324219 70.484375 72.503906 L 70.582031 72.367188 C 71.53125 71.0625 72.671875 69.898438 74.136719 69.1875 C 74.84375 68.882812 75.496094 68.753906 76.265625 68.832031 C 76.859375 68.949219 77.339844 69.179688 77.796875 69.574219 C 78.394531 70.191406 78.796875 70.910156 79.078125 71.722656 L 79.164062 71.957031 C 79.582031 73.222656 79.722656 74.535156 79.703125 75.859375 L 79.585938 75.769531 C 79.207031 75.476562 78.828125 75.195312 78.378906 75.019531 C 77.945312 74.96875 77.613281 74.976562 77.203125 75.128906 C 76.386719 75.488281 75.71875 76.132812 75.191406 76.84375 C 74.96875 77.160156 74.753906 77.484375 74.546875 77.8125 L 74.449219 77.96875 C 70.554688 84.175781 68.789062 91.949219 66.792969 99.152344 C 65.597656 103.472656 64.351562 107.78125 62.910156 112.027344 L 62.816406 112.296875 C 62.453125 113.363281 62.070312 114.417969 61.660156 115.464844 L 61.550781 115.734375 C 57.511719 126.003906 57.511719 126.003906 53.589844 129.285156 C 51.886719 130.632812 49.980469 131.394531 47.851562 131.746094 C 45.960938 131.988281 44.078125 131.632812 42.335938 130.902344 C 40.09375 129.90625 38.183594 128.210938 36.742188 126.242188 L 36.625 126.089844 C 36.054688 125.320312 35.5625 124.527344 35.113281 123.679688 C 35.027344 123.519531 34.941406 123.367188 34.851562 123.210938 C 33.121094 120.128906 32.160156 116.574219 31.488281 113.128906 L 31.453125 112.953125 C 31.148438 111.375 30.90625 109.785156 30.664062 108.199219 C 30.527344 107.316406 30.390625 106.4375 30.253906 105.554688 L 30.210938 105.292969 C 29.886719 103.210938 29.539062 101.132812 29.164062 99.058594 L 29.125 98.839844 C 27.886719 91.96875 26.074219 85.257812 23.773438 78.671875 L 23.621094 78.234375 C 23.515625 77.925781 23.40625 77.621094 23.300781 77.3125 C 23.246094 77.164062 23.195312 77.019531 23.140625 76.871094 C 22.382812 74.71875 21.570312 72.589844 20.726562 70.472656 L 20.664062 70.3125 C 19.96875 68.554688 19.253906 66.808594 18.527344 65.066406 C 18.371094 64.695312 18.21875 64.328125 18.066406 63.960938 C 17.976562 63.742188 17.882812 63.523438 17.792969 63.304688 L 17.625 62.90625 L 17.546875 62.71875 C 17.367188 62.285156 17.367188 62.285156 17.367188 62.113281 M 108.527344 2.121094 L 108.789062 2.167969 C 111.457031 2.648438 114.046875 3.578125 116.257812 5.167969 L 116.417969 5.28125 C 118.730469 6.945312 120.351562 8.863281 121.542969 11.464844 C 122.675781 14.011719 123.210938 16.75 123.542969 19.507812 L 123.5625 19.667969 C 123.75 21.230469 123.773438 22.785156 123.773438 24.355469 L 123.773438 24.640625 C 123.769531 26.152344 123.738281 27.644531 123.601562 29.148438 L 123.585938 29.3125 C 122.984375 36.148438 121.292969 42.914062 118.289062 50.628906 L 118.191406 50.871094 C 116.746094 54.433594 115.074219 57.929688 113.132812 61.253906 L 112.984375 61.511719 C 111.40625 64.214844 109.746094 67.039062 107.746094 69.457031 L 107.589844 69.535156 C 107.636719 68.796875 107.738281 68.074219 107.863281 67.347656 L 107.890625 67.164062 C 108.554688 63.222656 109.460938 59.296875 110.582031 55.460938 C 110.6875 55.097656 110.789062 54.734375 110.890625 54.371094 L 111.046875 53.824219 C 111.308594 52.886719 111.574219 51.949219 111.847656 51.011719 C 113.222656 46.285156 114.5625 41.550781 115.257812 36.667969 L 115.296875 36.414062 C 115.503906 34.875 115.585938 33.339844 115.582031 31.789062 L 115.582031 31.539062 C 115.566406 26.71875 114.34375 21.945312 111.960938 17.742188 C 111.261719 16.546875 110.414062 15.363281 109.402344 14.414062 L 109.308594 14.308594 L 109.308594 14.152344 L 109.171875 14.09375 C 108.964844 13.976562 108.8125 13.839844 108.636719 13.671875 C 106.84375 12.035156 104.578125 11.058594 102.230469 10.535156 C 101.730469 10.429688 101.230469 10.339844 100.726562 10.265625 L 100.539062 10.238281 C 99.527344 10.101562 98.503906 10.074219 97.484375 10.074219 C 97.3125 10.074219 97.136719 10.074219 96.964844 10.074219 C 95.039062 10.0625 93.132812 10.265625 91.222656 10.507812 C 90.652344 10.578125 90.082031 10.648438 89.511719 10.71875 L 89.34375 10.738281 C 88.339844 10.859375 87.339844 10.96875 86.335938 11.0625 L 86.144531 11.078125 C 85.742188 11.117188 85.339844 11.152344 84.9375 11.183594 L 84.636719 11.207031 C 83.46875 11.292969 82.292969 11.277344 81.125 11.28125 C 80.875 11.28125 80.625 11.28125 80.375 11.285156 C 75.765625 11.316406 71.0625 10.671875 66.890625 8.605469 L 66.707031 8.515625 C 66.351562 8.339844 65.996094 8.160156 65.640625 7.980469 L 65.640625 7.902344 L 65.789062 7.898438 C 73.101562 7.582031 80.136719 6.304688 89.0625 4.246094 C 92.6875 3.40625 96.320312 2.601562 100.011719 2.121094 L 100.175781 2.101562 C 102.890625 1.75 105.824219 1.648438 108.527344 2.121094 " fill-opacity="1" fill-rule="nonzero"/><path fill="#34659b" d="M 117.664062 60.941406 L 117.742188 61.097656 C 117.671875 61.289062 117.671875 61.289062 117.558594 61.53125 L 117.429688 61.8125 L 117.359375 61.964844 C 117.230469 62.238281 117.105469 62.511719 116.980469 62.789062 L 116.898438 62.964844 C 115.539062 65.964844 114.339844 69.035156 113.191406 72.117188 C 113.140625 72.25 113.089844 72.382812 113.042969 72.515625 C 110.589844 79.050781 108.863281 85.894531 106.824219 100.527344 C 106.808594 100.699219 106.792969 100.867188 106.777344 101.035156 C 106.5625 103.332031 106.457031 105.636719 106.351562 107.941406 C 106.339844 108.175781 106.328125 108.410156 106.316406 108.640625 C 106.238281 110.207031 106.238281 111.773438 106.222656 113.339844 C 106.175781 118.285156 106.175781 118.285156 106.003906 119.96875 L 105.972656 120.273438 C 105.695312 122.878906 105.222656 125.683594 103.6875 127.878906 C 103.113281 128.625 102.527344 129.148438 101.652344 129.523438 C 101.042969 129.71875 100.425781 129.734375 99.796875 129.625 C 98.328125 129.300781 97.117188 128.445312 96.023438 127.453125 C 95.8125 127.257812 95.609375 127.066406 95.402344 126.867188 L 95.207031 126.683594 C 94.804688 126.292969 94.449219 125.871094 94.097656 125.433594 C 93.988281 125.292969 93.875 125.15625 93.761719 125.019531 C 93.148438 124.28125 92.585938 123.519531 92.042969 122.726562 L 91.945312 122.582031 C 89.773438 119.445312 88.195312 115.957031 86.8125 112.417969 L 86.703125 112.144531 C 84.097656 105.40625 82.324219 98.335938 80.371094 88.28125 L 80.332031 88.0625 C 79.925781 85.824219 79.925781 85.824219 79.9375 85.3125 C 80.070312 85.511719 80.140625 85.65625 80.21875 85.878906 L 80.292969 86.082031 L 80.371094 86.304688 L 80.539062 86.78125 L 80.628906 87.035156 C 82.664062 92.769531 84.996094 98.386719 87.679688 103.84375 C 87.78125 104.050781 87.882812 104.253906 87.980469 104.460938 C 88.457031 105.429688 88.972656 106.367188 89.511719 107.300781 C 89.605469 107.46875 89.699219 107.632812 89.792969 107.800781 C 90.734375 109.480469 91.777344 111.132812 93.058594 112.574219 L 93.207031 112.746094 C 93.949219 113.617188 94.765625 114.445312 95.84375 114.882812 C 96.269531 115.019531 96.675781 115.0625 97.121094 114.996094 C 97.445312 114.894531 97.675781 114.75 97.917969 114.515625 C 98.535156 113.535156 98.8125 112.457031 99.039062 111.332031 L 99.085938 111.117188 C 99.457031 109.191406 99.6875 107.238281 99.945312 105.296875 C 100.652344 99.964844 100.652344 99.964844 100.972656 98.160156 L 101.007812 97.964844 C 101.585938 94.703125 102.25 91.464844 103.132812 88.269531 C 103.207031 87.988281 103.285156 87.710938 103.359375 87.429688 C 103.960938 85.222656 104.726562 83.050781 105.554688 80.917969 C 105.640625 80.6875 105.730469 80.460938 105.816406 80.234375 C 106.121094 79.4375 106.441406 78.660156 106.8125 77.890625 C 106.925781 77.648438 107.035156 77.40625 107.140625 77.160156 C 107.457031 76.457031 107.789062 75.757812 108.140625 75.070312 C 108.210938 74.929688 108.28125 74.785156 108.351562 74.640625 C 109.761719 71.769531 111.40625 68.992188 113.289062 66.410156 C 113.335938 66.347656 113.378906 66.289062 113.425781 66.226562 C 114.757812 64.398438 116.167969 62.636719 117.664062 60.941406 " fill-opacity="1" fill-rule="nonzero"/><path fill="#607ec1" d="M 14.867188 9.464844 L 15.023438 9.542969 L 12.371094 12.199219 L 12.214844 12.121094 C 14.046875 10.15625 14.046875 10.15625 14.867188 9.464844 " fill-opacity="1" fill-rule="nonzero"/></svg>