<svg xmlns="http://www.w3.org/2000/svg" viewBox="0 0 320 80" preserveAspectRatio="xMidYMid meet"><defs><g/></defs><g fill="#20438e" fill-opacity="1"><g transform="translate(53.655709, 26.474124)"><g><path d="M 5.390625 0.203125 C 4.441406 0.203125 3.519531 0.078125 2.625 -0.171875 C 1.738281 -0.429688 1.023438 -0.769531 0.484375 -1.1875 L 1.4375 -3.296875 C 1.945312 -2.910156 2.554688 -2.601562 3.265625 -2.375 C 3.984375 -2.144531 4.695312 -2.03125 5.40625 -2.03125 C 6.195312 -2.03125 6.78125 -2.144531 7.15625 -2.375 C 7.539062 -2.613281 7.734375 -2.929688 7.734375 -3.328125 C 7.734375 -3.609375 7.617188 -3.84375 7.390625 -4.03125 C 7.171875 -4.226562 6.882812 -4.382812 6.53125 -4.5 C 6.1875 -4.613281 5.71875 -4.738281 5.125 -4.875 C 4.195312 -5.09375 3.441406 -5.3125 2.859375 -5.53125 C 2.273438 -5.75 1.769531 -6.097656 1.34375 -6.578125 C 0.925781 -7.066406 0.71875 -7.710938 0.71875 -8.515625 C 0.71875 -9.210938 0.90625 -9.84375 1.28125 -10.40625 C 1.664062 -10.976562 2.238281 -11.429688 3 -11.765625 C 3.769531 -12.097656 4.707031 -12.265625 5.8125 -12.265625 C 6.582031 -12.265625 7.332031 -12.171875 8.0625 -11.984375 C 8.800781 -11.804688 9.445312 -11.546875 10 -11.203125 L 9.140625 -9.078125 C 8.023438 -9.710938 6.910156 -10.03125 5.796875 -10.03125 C 5.015625 -10.03125 4.4375 -9.898438 4.0625 -9.640625 C 3.6875 -9.390625 3.5 -9.0625 3.5 -8.65625 C 3.5 -8.238281 3.710938 -7.925781 4.140625 -7.71875 C 4.578125 -7.519531 5.238281 -7.328125 6.125 -7.140625 C 7.039062 -6.921875 7.789062 -6.703125 8.375 -6.484375 C 8.957031 -6.265625 9.457031 -5.914062 9.875 -5.4375 C 10.300781 -4.96875 10.515625 -4.332031 10.515625 -3.53125 C 10.515625 -2.84375 10.320312 -2.210938 9.9375 -1.640625 C 9.550781 -1.078125 8.972656 -0.628906 8.203125 -0.296875 C 7.429688 0.0351562 6.492188 0.203125 5.390625 0.203125 Z M 5.390625 0.203125 "/></g></g></g><g fill="#20438e" fill-opacity="1"><g transform="translate(68.094501, 26.474124)"><g><path d="M 6.65625 -12.0625 C 7.71875 -12.0625 8.640625 -11.882812 9.421875 -11.53125 C 10.210938 -11.175781 10.820312 -10.671875 11.25 -10.015625 C 11.675781 -9.359375 11.890625 -8.582031 11.890625 -7.6875 C 11.890625 -6.800781 11.675781 -6.023438 11.25 -5.359375 C 10.820312 -4.703125 10.210938 -4.195312 9.421875 -3.84375 C 8.640625 -3.5 7.71875 -3.328125 6.65625 -3.328125 L 4.21875 -3.328125 L 4.21875 0 L 1.4375 0 L 1.4375 -12.0625 Z M 6.5 -5.59375 C 7.332031 -5.59375 7.96875 -5.773438 8.40625 -6.140625 C 8.84375 -6.503906 9.0625 -7.019531 9.0625 -7.6875 C 9.0625 -8.363281 8.84375 -8.882812 8.40625 -9.25 C 7.96875 -9.613281 7.332031 -9.796875 6.5 -9.796875 L 4.21875 -9.796875 L 4.21875 -5.59375 Z M 6.5 -5.59375 "/></g></g></g><g fill="#20438e" fill-opacity="1"><g transform="translate(84.152598, 26.474124)"><g><path d="M 9.109375 0 L 6.796875 -3.359375 L 4.21875 -3.359375 L 4.21875 0 L 1.4375 0 L 1.4375 -12.0625 L 6.65625 -12.0625 C 7.71875 -12.0625 8.640625 -11.882812 9.421875 -11.53125 C 10.210938 -11.175781 10.820312 -10.671875 11.25 -10.015625 C 11.675781 -9.359375 11.890625 -8.582031 11.890625 -7.6875 C 11.890625 -6.789062 11.671875 -6.015625 11.234375 -5.359375 C 10.804688 -4.710938 10.195312 -4.21875 9.40625 -3.875 L 12.109375 0 Z M 9.0625 -7.6875 C 9.0625 -8.363281 8.84375 -8.882812 8.40625 -9.25 C 7.96875 -9.613281 7.332031 -9.796875 6.5 -9.796875 L 4.21875 -9.796875 L 4.21875 -5.578125 L 6.5 -5.578125 C 7.332031 -5.578125 7.96875 -5.757812 8.40625 -6.125 C 8.84375 -6.5 9.0625 -7.019531 9.0625 -7.6875 Z M 9.0625 -7.6875 "/></g></g></g><g fill="#20438e" fill-opacity="1"><g transform="translate(100.262377, 26.474124)"><g><path d="M 1.4375 -12.0625 L 4.21875 -12.0625 L 4.21875 0 L 1.4375 0 Z M 1.4375 -12.0625 "/></g></g></g><g fill="#20438e" fill-opacity="1"><g transform="translate(109.360933, 26.474124)"><g><path d="M 12.5 -12.0625 L 12.5 0 L 10.203125 0 L 4.1875 -7.328125 L 4.1875 0 L 1.4375 0 L 1.4375 -12.0625 L 3.734375 -12.0625 L 9.734375 -4.734375 L 9.734375 -12.0625 Z M 12.5 -12.0625 "/></g></g></g><g fill="#20438e" fill-opacity="1"><g transform="translate(126.728246, 26.474124)"><g><path d="M 9.578125 -6.21875 L 12.140625 -6.21875 L 12.140625 -1.328125 C 11.484375 -0.835938 10.722656 -0.457031 9.859375 -0.1875 C 8.992188 0.0703125 8.125 0.203125 7.25 0.203125 C 6 0.203125 4.875 -0.0625 3.875 -0.59375 C 2.875 -1.125 2.085938 -1.863281 1.515625 -2.8125 C 0.953125 -3.757812 0.671875 -4.832031 0.671875 -6.03125 C 0.671875 -7.226562 0.953125 -8.300781 1.515625 -9.25 C 2.085938 -10.195312 2.878906 -10.9375 3.890625 -11.46875 C 4.898438 -12 6.039062 -12.265625 7.3125 -12.265625 C 8.363281 -12.265625 9.320312 -12.085938 10.1875 -11.734375 C 11.050781 -11.378906 11.773438 -10.863281 12.359375 -10.1875 L 10.5625 -8.53125 C 9.695312 -9.4375 8.65625 -9.890625 7.4375 -9.890625 C 6.675781 -9.890625 5.992188 -9.726562 5.390625 -9.40625 C 4.796875 -9.082031 4.332031 -8.628906 4 -8.046875 C 3.664062 -7.460938 3.5 -6.789062 3.5 -6.03125 C 3.5 -5.28125 3.664062 -4.613281 4 -4.03125 C 4.332031 -3.445312 4.789062 -2.988281 5.375 -2.65625 C 5.96875 -2.332031 6.644531 -2.171875 7.40625 -2.171875 C 8.207031 -2.171875 8.929688 -2.34375 9.578125 -2.6875 Z M 9.578125 -6.21875 "/></g></g></g><g fill="#20438e" fill-opacity="1"><g transform="translate(143.45818, 26.474124)"><g/></g></g><g fill="#20438e" fill-opacity="1"><g transform="translate(151.781548, 26.474124)"><g><path d="M 13.03125 -12.0625 L 7.8125 0 L 5.046875 0 L -0.15625 -12.0625 L 2.859375 -12.0625 L 6.53125 -3.453125 L 10.25 -12.0625 Z M 13.03125 -12.0625 "/></g></g></g><g fill="#20438e" fill-opacity="1"><g transform="translate(168.080818, 26.474124)"><g><path d="M 9.375 -2.578125 L 3.78125 -2.578125 L 2.703125 0 L -0.15625 0 L 5.21875 -12.0625 L 7.984375 -12.0625 L 13.375 0 L 10.4375 0 Z M 8.5 -4.703125 L 6.578125 -9.328125 L 4.671875 -4.703125 Z M 8.5 -4.703125 "/></g></g></g><g fill="#20438e" fill-opacity="1"><g transform="translate(184.724613, 26.474124)"><g><path d="M 1.4375 -12.0625 L 4.21875 -12.0625 L 4.21875 -2.28125 L 10.265625 -2.28125 L 10.265625 0 L 1.4375 0 Z M 1.4375 -12.0625 "/></g></g></g><g fill="#20438e" fill-opacity="1"><g transform="translate(198.577708, 26.474124)"><g><path d="M 1.4375 -12.0625 L 4.21875 -12.0625 L 4.21875 -2.28125 L 10.265625 -2.28125 L 10.265625 0 L 1.4375 0 Z M 1.4375 -12.0625 "/></g></g></g><g fill="#20438e" fill-opacity="1"><g transform="translate(212.430804, 26.474124)"><g><path d="M 10.765625 -2.234375 L 10.765625 0 L 1.4375 0 L 1.4375 -12.0625 L 10.546875 -12.0625 L 10.546875 -9.828125 L 4.203125 -9.828125 L 4.203125 -7.203125 L 9.8125 -7.203125 L 9.8125 -5.03125 L 4.203125 -5.03125 L 4.203125 -2.234375 Z M 10.765625 -2.234375 "/></g></g></g><g fill="#20438e" fill-opacity="1"><g transform="translate(227.438082, 26.474124)"><g><path d="M 7.21875 -4.28125 L 7.21875 0 L 4.421875 0 L 4.421875 -4.3125 L -0.234375 -12.0625 L 2.71875 -12.0625 L 5.953125 -6.703125 L 9.171875 -12.0625 L 11.90625 -12.0625 Z M 7.21875 -4.28125 "/></g></g></g><g fill="#777e82" fill-opacity="1"><g transform="translate(88.404063, 58.80372)"><g><path d="M 6.234375 -1.71875 L 2.515625 -1.71875 L 1.796875 0 L -0.109375 0 L 3.46875 -8.03125 L 5.3125 -8.03125 L 8.90625 0 L 6.953125 0 Z M 5.65625 -3.125 L 4.375 -6.203125 L 3.109375 -3.125 Z M 5.65625 -3.125 "/></g></g></g><g fill="#777e82" fill-opacity="1"><g transform="translate(99.671881, 58.80372)"><g><path d="M 3.59375 0.140625 C 2.957031 0.140625 2.34375 0.0546875 1.75 -0.109375 C 1.15625 -0.285156 0.679688 -0.515625 0.328125 -0.796875 L 0.953125 -2.1875 C 1.296875 -1.9375 1.703125 -1.734375 2.171875 -1.578125 C 2.648438 -1.429688 3.125 -1.359375 3.59375 -1.359375 C 4.125 -1.359375 4.515625 -1.4375 4.765625 -1.59375 C 5.023438 -1.75 5.15625 -1.957031 5.15625 -2.21875 C 5.15625 -2.40625 5.078125 -2.5625 4.921875 -2.6875 C 4.773438 -2.8125 4.582031 -2.910156 4.34375 -2.984375 C 4.113281 -3.066406 3.800781 -3.15625 3.40625 -3.25 C 2.789062 -3.394531 2.285156 -3.539062 1.890625 -3.6875 C 1.503906 -3.832031 1.171875 -4.0625 0.890625 -4.375 C 0.617188 -4.695312 0.484375 -5.128906 0.484375 -5.671875 C 0.484375 -6.128906 0.609375 -6.546875 0.859375 -6.921875 C 1.109375 -7.304688 1.488281 -7.609375 2 -7.828125 C 2.507812 -8.054688 3.128906 -8.171875 3.859375 -8.171875 C 4.378906 -8.171875 4.878906 -8.109375 5.359375 -7.984375 C 5.847656 -7.859375 6.28125 -7.679688 6.65625 -7.453125 L 6.078125 -6.046875 C 5.335938 -6.460938 4.597656 -6.671875 3.859375 -6.671875 C 3.335938 -6.671875 2.953125 -6.585938 2.703125 -6.421875 C 2.453125 -6.253906 2.328125 -6.03125 2.328125 -5.75 C 2.328125 -5.476562 2.46875 -5.273438 2.75 -5.140625 C 3.039062 -5.003906 3.484375 -4.875 4.078125 -4.75 C 4.679688 -4.601562 5.175781 -4.457031 5.5625 -4.3125 C 5.957031 -4.164062 6.296875 -3.9375 6.578125 -3.625 C 6.859375 -3.3125 7 -2.882812 7 -2.34375 C 7 -1.882812 6.867188 -1.46875 6.609375 -1.09375 C 6.359375 -0.71875 5.972656 -0.414062 5.453125 -0.1875 C 4.941406 0.03125 4.320312 0.140625 3.59375 0.140625 Z M 3.59375 0.140625 "/></g></g></g><g fill="#777e82" fill-opacity="1"><g transform="translate(109.471193, 58.80372)"><g><path d="M 3.59375 0.140625 C 2.957031 0.140625 2.34375 0.0546875 1.75 -0.109375 C 1.15625 -0.285156 0.679688 -0.515625 0.328125 -0.796875 L 0.953125 -2.1875 C 1.296875 -1.9375 1.703125 -1.734375 2.171875 -1.578125 C 2.648438 -1.429688 3.125 -1.359375 3.59375 -1.359375 C 4.125 -1.359375 4.515625 -1.4375 4.765625 -1.59375 C 5.023438 -1.75 5.15625 -1.957031 5.15625 -2.21875 C 5.15625 -2.40625 5.078125 -2.5625 4.921875 -2.6875 C 4.773438 -2.8125 4.582031 -2.910156 4.34375 -2.984375 C 4.113281 -3.066406 3.800781 -3.15625 3.40625 -3.25 C 2.789062 -3.394531 2.285156 -3.539062 1.890625 -3.6875 C 1.503906 -3.832031 1.171875 -4.0625 0.890625 -4.375 C 0.617188 -4.695312 0.484375 -5.128906 0.484375 -5.671875 C 0.484375 -6.128906 0.609375 -6.546875 0.859375 -6.921875 C 1.109375 -7.304688 1.488281 -7.609375 2 -7.828125 C 2.507812 -8.054688 3.128906 -8.171875 3.859375 -8.171875 C 4.378906 -8.171875 4.878906 -8.109375 5.359375 -7.984375 C 5.847656 -7.859375 6.28125 -7.679688 6.65625 -7.453125 L 6.078125 -6.046875 C 5.335938 -6.460938 4.597656 -6.671875 3.859375 -6.671875 C 3.335938 -6.671875 2.953125 -6.585938 2.703125 -6.421875 C 2.453125 -6.253906 2.328125 -6.03125 2.328125 -5.75 C 2.328125 -5.476562 2.46875 -5.273438 2.75 -5.140625 C 3.039062 -5.003906 3.484375 -4.875 4.078125 -4.75 C 4.679688 -4.601562 5.175781 -4.457031 5.5625 -4.3125 C 5.957031 -4.164062 6.296875 -3.9375 6.578125 -3.625 C 6.859375 -3.3125 7 -2.882812 7 -2.34375 C 7 -1.882812 6.867188 -1.46875 6.609375 -1.09375 C 6.359375 -0.71875 5.972656 -0.414062 5.453125 -0.1875 C 4.941406 0.03125 4.320312 0.140625 3.59375 0.140625 Z M 3.59375 0.140625 "/></g></g></g><g fill="#777e82" fill-opacity="1"><g transform="translate(119.270505, 58.80372)"><g><path d="M 4.84375 0.140625 C 4.007812 0.140625 3.253906 -0.0351562 2.578125 -0.390625 C 1.910156 -0.753906 1.390625 -1.25 1.015625 -1.875 C 0.640625 -2.507812 0.453125 -3.222656 0.453125 -4.015625 C 0.453125 -4.796875 0.640625 -5.503906 1.015625 -6.140625 C 1.390625 -6.773438 1.910156 -7.269531 2.578125 -7.625 C 3.253906 -7.988281 4.007812 -8.171875 4.84375 -8.171875 C 5.675781 -8.171875 6.421875 -7.988281 7.078125 -7.625 C 7.742188 -7.269531 8.269531 -6.773438 8.65625 -6.140625 C 9.039062 -5.503906 9.234375 -4.796875 9.234375 -4.015625 C 9.234375 -3.222656 9.039062 -2.507812 8.65625 -1.875 C 8.269531 -1.25 7.742188 -0.753906 7.078125 -0.390625 C 6.421875 -0.0351562 5.675781 0.140625 4.84375 0.140625 Z M 4.84375 -1.4375 C 5.3125 -1.4375 5.738281 -1.546875 6.125 -1.765625 C 6.507812 -1.984375 6.804688 -2.285156 7.015625 -2.671875 C 7.234375 -3.066406 7.34375 -3.515625 7.34375 -4.015625 C 7.34375 -4.515625 7.234375 -4.957031 7.015625 -5.34375 C 6.804688 -5.726562 6.507812 -6.03125 6.125 -6.25 C 5.738281 -6.46875 5.3125 -6.578125 4.84375 -6.578125 C 4.363281 -6.578125 3.929688 -6.46875 3.546875 -6.25 C 3.171875 -6.03125 2.875 -5.726562 2.65625 -5.34375 C 2.4375 -4.957031 2.328125 -4.515625 2.328125 -4.015625 C 2.328125 -3.515625 2.4375 -3.066406 2.65625 -2.671875 C 2.875 -2.285156 3.171875 -1.984375 3.546875 -1.765625 C 3.929688 -1.546875 4.363281 -1.4375 4.84375 -1.4375 Z M 4.84375 -1.4375 "/></g></g></g><g fill="#777e82" fill-opacity="1"><g transform="translate(131.433194, 58.80372)"><g><path d="M 4.796875 0.140625 C 3.972656 0.140625 3.226562 -0.0351562 2.5625 -0.390625 C 1.90625 -0.742188 1.390625 -1.238281 1.015625 -1.875 C 0.640625 -2.507812 0.453125 -3.222656 0.453125 -4.015625 C 0.453125 -4.804688 0.640625 -5.515625 1.015625 -6.140625 C 1.390625 -6.773438 1.90625 -7.269531 2.5625 -7.625 C 3.226562 -7.988281 3.976562 -8.171875 4.8125 -8.171875 C 5.5 -8.171875 6.125 -8.046875 6.6875 -7.796875 C 7.25 -7.554688 7.722656 -7.207031 8.109375 -6.75 L 6.921875 -5.640625 C 6.367188 -6.265625 5.691406 -6.578125 4.890625 -6.578125 C 4.398438 -6.578125 3.957031 -6.46875 3.5625 -6.25 C 3.175781 -6.03125 2.875 -5.726562 2.65625 -5.34375 C 2.4375 -4.957031 2.328125 -4.515625 2.328125 -4.015625 C 2.328125 -3.515625 2.4375 -3.066406 2.65625 -2.671875 C 2.875 -2.285156 3.175781 -1.984375 3.5625 -1.765625 C 3.957031 -1.546875 4.398438 -1.4375 4.890625 -1.4375 C 5.691406 -1.4375 6.367188 -1.753906 6.921875 -2.390625 L 8.109375 -1.296875 C 7.722656 -0.828125 7.25 -0.46875 6.6875 -0.21875 C 6.125 0.0195312 5.492188 0.140625 4.796875 0.140625 Z M 4.796875 0.140625 "/></g></g></g><g fill="#777e82" fill-opacity="1"><g transform="translate(142.322418, 58.80372)"><g><path d="M 0.953125 -8.03125 L 2.8125 -8.03125 L 2.8125 0 L 0.953125 0 Z M 0.953125 -8.03125 "/></g></g></g><g fill="#777e82" fill-opacity="1"><g transform="translate(148.565193, 58.80372)"><g><path d="M 6.234375 -1.71875 L 2.515625 -1.71875 L 1.796875 0 L -0.109375 0 L 3.46875 -8.03125 L 5.3125 -8.03125 L 8.90625 0 L 6.953125 0 Z M 5.65625 -3.125 L 4.375 -6.203125 L 3.109375 -3.125 Z M 5.65625 -3.125 "/></g></g></g><g fill="#777e82" fill-opacity="1"><g transform="translate(159.833011, 58.80372)"><g><path d="M 2.609375 -6.515625 L 0.046875 -6.515625 L 0.046875 -8.03125 L 7.046875 -8.03125 L 7.046875 -6.515625 L 4.46875 -6.515625 L 4.46875 0 L 2.609375 0 Z M 2.609375 -6.515625 "/></g></g></g><g fill="#777e82" fill-opacity="1"><g transform="translate(169.402869, 58.80372)"><g><path d="M 7.171875 -1.484375 L 7.171875 0 L 0.953125 0 L 0.953125 -8.03125 L 7.015625 -8.03125 L 7.015625 -6.53125 L 2.796875 -6.53125 L 2.796875 -4.796875 L 6.53125 -4.796875 L 6.53125 -3.34375 L 2.796875 -3.34375 L 2.796875 -1.484375 Z M 7.171875 -1.484375 "/></g></g></g><g fill="#777e82" fill-opacity="1"><g transform="translate(179.580786, 58.80372)"><g><path d="M 3.59375 0.140625 C 2.957031 0.140625 2.34375 0.0546875 1.75 -0.109375 C 1.15625 -0.285156 0.679688 -0.515625 0.328125 -0.796875 L 0.953125 -2.1875 C 1.296875 -1.9375 1.703125 -1.734375 2.171875 -1.578125 C 2.648438 -1.429688 3.125 -1.359375 3.59375 -1.359375 C 4.125 -1.359375 4.515625 -1.4375 4.765625 -1.59375 C 5.023438 -1.75 5.15625 -1.957031 5.15625 -2.21875 C 5.15625 -2.40625 5.078125 -2.5625 4.921875 -2.6875 C 4.773438 -2.8125 4.582031 -2.910156 4.34375 -2.984375 C 4.113281 -3.066406 3.800781 -3.15625 3.40625 -3.25 C 2.789062 -3.394531 2.285156 -3.539062 1.890625 -3.6875 C 1.503906 -3.832031 1.171875 -4.0625 0.890625 -4.375 C 0.617188 -4.695312 0.484375 -5.128906 0.484375 -5.671875 C 0.484375 -6.128906 0.609375 -6.546875 0.859375 -6.921875 C 1.109375 -7.304688 1.488281 -7.609375 2 -7.828125 C 2.507812 -8.054688 3.128906 -8.171875 3.859375 -8.171875 C 4.378906 -8.171875 4.878906 -8.109375 5.359375 -7.984375 C 5.847656 -7.859375 6.28125 -7.679688 6.65625 -7.453125 L 6.078125 -6.046875 C 5.335938 -6.460938 4.597656 -6.671875 3.859375 -6.671875 C 3.335938 -6.671875 2.953125 -6.585938 2.703125 -6.421875 C 2.453125 -6.253906 2.328125 -6.03125 2.328125 -5.75 C 2.328125 -5.476562 2.46875 -5.273438 2.75 -5.140625 C 3.039062 -5.003906 3.484375 -4.875 4.078125 -4.75 C 4.679688 -4.601562 5.175781 -4.457031 5.5625 -4.3125 C 5.957031 -4.164062 6.296875 -3.9375 6.578125 -3.625 C 6.859375 -3.3125 7 -2.882812 7 -2.34375 C 7 -1.882812 6.867188 -1.46875 6.609375 -1.09375 C 6.359375 -0.71875 5.972656 -0.414062 5.453125 -0.1875 C 4.941406 0.03125 4.320312 0.140625 3.59375 0.140625 Z M 3.59375 0.140625 "/></g></g></g><path fill="#0e3791" d="M 19.230469 7.246094 C 19.257812 7.257812 19.285156 7.265625 19.3125 7.273438 C 20.273438 7.582031 21.222656 7.921875 22.171875 8.269531 C 22.425781 8.359375 22.679688 8.453125 22.933594 8.546875 L 23.265625 8.667969 C 23.734375 8.835938 24.199219 9.007812 24.667969 9.175781 L 24.730469 9.199219 C 24.832031 9.238281 24.933594 9.273438 25.035156 9.3125 C 27.308594 10.140625 29.636719 10.894531 32.042969 11.238281 L 32.136719 11.25 C 32.800781 11.347656 33.472656 11.382812 34.140625 11.425781 C 33.261719 12.132812 31.632812 12.332031 30.546875 12.503906 C 30.21875 12.550781 29.890625 12.59375 29.5625 12.628906 L 29.464844 12.640625 C 26.890625 12.929688 24.230469 12.558594 20.164062 11.285156 C 19.242188 10.953125 18.308594 10.671875 17.355469 10.445312 L 17.238281 10.417969 C 16.402344 10.222656 15.527344 10.0625 14.664062 10.058594 L 14.558594 10.058594 C 14.488281 10.058594 14.414062 10.058594 14.339844 10.058594 C 14.230469 10.058594 14.125 10.058594 14.015625 10.054688 C 12.890625 10.050781 11.820312 10.277344 10.839844 10.828125 C 10.511719 11.015625 10.226562 11.234375 9.949219 11.492188 L 9.863281 11.570312 C 9.527344 11.890625 9.269531 12.269531 9.027344 12.660156 L 8.992188 12.71875 C 8.320312 13.8125 7.902344 15.257812 7.847656 16.542969 C 7.847656 16.625 7.84375 16.710938 7.84375 16.792969 L 7.84375 16.886719 C 7.839844 17.554688 7.84375 18.207031 7.945312 18.867188 L 7.964844 18.996094 C 8.144531 20.207031 8.441406 21.394531 8.773438 22.574219 L 8.792969 22.640625 C 8.957031 23.226562 9.136719 23.800781 9.324219 24.378906 C 9.375 24.53125 9.425781 24.683594 9.476562 24.835938 C 9.972656 26.351562 9.972656 26.351562 10.484375 27.859375 C 10.707031 28.503906 10.921875 29.148438 11.128906 29.796875 C 11.160156 29.890625 11.191406 29.988281 11.222656 30.085938 C 12.898438 35.285156 12.898438 35.285156 12.84375 36.949219 C 12.773438 36.878906 12.746094 36.824219 12.707031 36.734375 L 12.664062 36.640625 L 12.621094 36.539062 C 12.375 36.003906 12.109375 35.480469 11.824219 34.964844 C 11.75 34.835938 11.679688 34.703125 11.613281 34.570312 C 11.460938 34.28125 11.300781 34 11.132812 33.71875 C 11.011719 33.515625 10.898438 33.308594 10.785156 33.101562 C 10.640625 32.84375 10.496094 32.589844 10.34375 32.335938 C 10.292969 32.253906 10.246094 32.171875 10.199219 32.089844 C 9.582031 31.050781 8.957031 30.015625 8.308594 28.996094 C 8.210938 28.84375 8.113281 28.691406 8.019531 28.539062 C 7.835938 28.238281 7.644531 27.941406 7.449219 27.648438 C 7.324219 27.457031 7.199219 27.261719 7.078125 27.066406 C 6.988281 26.921875 6.894531 26.773438 6.800781 26.628906 L 6.753906 26.558594 C 6.601562 26.324219 6.449219 26.09375 6.292969 25.859375 C 5.671875 24.917969 5.085938 23.964844 4.578125 22.953125 L 4.527344 22.855469 C 4.105469 22.019531 3.765625 21.148438 3.464844 20.261719 L 3.429688 20.164062 C 2.722656 18.039062 2.429688 15.714844 2.855469 13.503906 C 2.976562 12.933594 3.152344 12.378906 3.371094 11.839844 L 3.398438 11.769531 C 3.714844 10.996094 4.160156 10.289062 4.703125 9.652344 L 4.789062 9.550781 C 5.136719 9.136719 5.515625 8.753906 5.945312 8.417969 C 5.984375 8.386719 6.023438 8.351562 6.066406 8.320312 C 6.3125 8.113281 6.5625 7.925781 6.835938 7.753906 L 6.96875 7.667969 C 8.300781 6.808594 9.765625 6.253906 11.347656 6.074219 L 11.433594 6.066406 C 14.007812 5.777344 16.632812 6.421875 19.230469 7.246094 " fill-opacity="1" fill-rule="nonzero"/><path fill="#8a8f9c" d="M 6.867188 29.824219 C 6.980469 29.933594 7.085938 30.050781 7.191406 30.171875 L 7.234375 30.226562 C 7.394531 30.414062 7.542969 30.609375 7.691406 30.804688 L 7.746094 30.875 C 7.960938 31.160156 8.175781 31.449219 8.386719 31.738281 L 8.433594 31.800781 C 8.722656 32.199219 8.996094 32.609375 9.269531 33.015625 L 9.324219 33.097656 C 9.617188 33.53125 9.898438 33.96875 10.171875 34.414062 L 10.214844 34.484375 C 10.363281 34.726562 10.503906 34.972656 10.644531 35.21875 C 10.707031 35.324219 10.769531 35.429688 10.832031 35.535156 C 10.953125 35.738281 11.066406 35.9375 11.171875 36.148438 C 11.234375 36.277344 11.300781 36.40625 11.371094 36.53125 C 12.757812 39.152344 13.636719 41.871094 14.292969 45.753906 L 14.324219 45.941406 C 14.371094 46.222656 14.417969 46.507812 14.460938 46.789062 C 14.628906 47.828125 14.800781 48.871094 15.0625 49.890625 L 15.082031 49.96875 C 15.207031 50.453125 15.355469 50.921875 15.542969 51.386719 L 15.582031 51.476562 C 15.898438 52.253906 16.371094 52.984375 17.039062 53.507812 C 17.507812 53.859375 18.058594 54.167969 18.640625 54.28125 C 18.925781 54.316406 19.1875 54.269531 19.457031 54.167969 C 20.074219 53.894531 20.550781 53.324219 20.941406 52.792969 C 22.007812 51.316406 22.769531 49.59375 23.425781 47.902344 L 23.480469 47.773438 C 23.894531 46.703125 24.289062 45.628906 24.667969 44.546875 L 24.695312 44.464844 C 25.230469 42.925781 25.726562 41.375 26.210938 39.820312 C 26.34375 39.386719 26.480469 38.957031 26.621094 38.523438 C 26.691406 38.308594 26.761719 38.089844 26.832031 37.875 C 27.449219 35.902344 27.449219 35.902344 27.8125 35.175781 L 27.855469 35.09375 C 28.039062 34.722656 28.238281 34.367188 28.480469 34.035156 L 28.519531 33.980469 C 28.90625 33.449219 29.371094 32.980469 29.96875 32.691406 C 30.253906 32.566406 30.519531 32.515625 30.832031 32.546875 C 31.074219 32.59375 31.269531 32.6875 31.457031 32.847656 C 31.699219 33.097656 31.863281 33.390625 31.976562 33.71875 L 32.011719 33.816406 C 32.183594 34.328125 32.238281 34.859375 32.234375 35.394531 L 32.183594 35.359375 C 32.03125 35.242188 31.878906 35.125 31.695312 35.054688 C 31.515625 35.035156 31.382812 35.039062 31.214844 35.097656 C 30.882812 35.246094 30.609375 35.507812 30.398438 35.796875 C 30.304688 35.925781 30.21875 36.054688 30.132812 36.1875 L 30.09375 36.25 C 28.507812 38.765625 27.789062 41.917969 26.980469 44.835938 C 26.492188 46.589844 25.984375 48.335938 25.398438 50.054688 L 25.359375 50.164062 C 25.214844 50.597656 25.058594 51.027344 24.890625 51.449219 L 24.847656 51.558594 C 23.203125 55.722656 23.203125 55.722656 21.605469 57.050781 C 20.914062 57.597656 20.136719 57.90625 19.269531 58.050781 C 18.503906 58.148438 17.734375 58.003906 17.027344 57.707031 C 16.113281 57.304688 15.335938 56.617188 14.75 55.820312 L 14.703125 55.757812 C 14.46875 55.445312 14.269531 55.125 14.085938 54.78125 C 14.050781 54.714844 14.015625 54.652344 13.980469 54.589844 C 13.277344 53.339844 12.886719 51.898438 12.613281 50.503906 L 12.597656 50.429688 C 12.472656 49.792969 12.375 49.148438 12.277344 48.503906 C 12.222656 48.148438 12.164062 47.789062 12.109375 47.433594 L 12.09375 47.328125 C 11.960938 46.484375 11.820312 45.640625 11.664062 44.800781 L 11.648438 44.710938 C 11.144531 41.925781 10.40625 39.207031 9.472656 36.535156 L 9.410156 36.359375 C 9.367188 36.234375 9.324219 36.109375 9.28125 35.984375 C 9.257812 35.925781 9.238281 35.867188 9.214844 35.804688 C 8.90625 34.933594 8.574219 34.070312 8.234375 33.210938 L 8.207031 33.148438 C 7.921875 32.433594 7.632812 31.726562 7.335938 31.019531 C 7.273438 30.871094 7.210938 30.722656 7.148438 30.570312 C 7.113281 30.484375 7.074219 30.394531 7.039062 30.308594 L 6.972656 30.144531 L 6.9375 30.070312 C 6.867188 29.894531 6.867188 29.894531 6.867188 29.824219 M 43.960938 5.507812 L 44.070312 5.523438 C 45.15625 5.71875 46.207031 6.097656 47.109375 6.742188 L 47.171875 6.785156 C 48.113281 7.460938 48.773438 8.238281 49.257812 9.292969 C 49.71875 10.324219 49.9375 11.4375 50.074219 12.554688 L 50.082031 12.617188 C 50.15625 13.25 50.167969 13.882812 50.167969 14.519531 L 50.167969 14.636719 C 50.164062 15.246094 50.152344 15.851562 50.097656 16.460938 L 50.089844 16.527344 C 49.84375 19.300781 49.15625 22.042969 47.933594 25.167969 L 47.894531 25.265625 C 47.308594 26.710938 46.625 28.128906 45.835938 29.476562 L 45.777344 29.578125 C 45.132812 30.675781 44.457031 31.820312 43.644531 32.800781 L 43.582031 32.832031 C 43.601562 32.53125 43.640625 32.238281 43.691406 31.945312 L 43.703125 31.871094 C 43.972656 30.273438 44.34375 28.683594 44.796875 27.125 C 44.839844 26.980469 44.882812 26.832031 44.925781 26.683594 L 44.988281 26.464844 C 45.09375 26.082031 45.203125 25.703125 45.3125 25.324219 C 45.875 23.410156 46.417969 21.488281 46.703125 19.507812 L 46.714844 19.40625 C 46.800781 18.785156 46.835938 18.160156 46.832031 17.53125 L 46.832031 17.429688 C 46.828125 15.476562 46.328125 13.542969 45.359375 11.839844 C 45.074219 11.351562 44.730469 10.875 44.320312 10.488281 L 44.28125 10.445312 L 44.28125 10.382812 L 44.226562 10.359375 C 44.140625 10.3125 44.078125 10.253906 44.007812 10.1875 C 43.277344 9.523438 42.355469 9.128906 41.398438 8.914062 C 41.195312 8.875 40.992188 8.835938 40.789062 8.808594 L 40.710938 8.796875 C 40.300781 8.742188 39.882812 8.730469 39.46875 8.730469 C 39.398438 8.730469 39.328125 8.730469 39.257812 8.730469 C 38.472656 8.726562 37.695312 8.808594 36.921875 8.90625 C 36.6875 8.933594 36.457031 8.960938 36.222656 8.988281 L 36.15625 9 C 35.75 9.046875 35.339844 9.089844 34.933594 9.128906 L 34.855469 9.136719 C 34.691406 9.152344 34.527344 9.167969 34.363281 9.179688 L 34.238281 9.1875 C 33.765625 9.222656 33.289062 9.21875 32.8125 9.21875 C 32.710938 9.21875 32.609375 9.21875 32.507812 9.21875 C 30.628906 9.234375 28.71875 8.972656 27.019531 8.132812 L 26.945312 8.097656 C 26.800781 8.027344 26.65625 7.953125 26.511719 7.882812 L 26.511719 7.847656 L 26.570312 7.847656 C 29.546875 7.71875 32.410156 7.199219 36.039062 6.367188 C 37.515625 6.027344 38.996094 5.699219 40.496094 5.507812 L 40.566406 5.496094 C 41.667969 5.355469 42.863281 5.3125 43.960938 5.507812 " fill-opacity="1" fill-rule="nonzero"/><path fill="#0e3791" d="M 47.679688 29.347656 L 47.714844 29.410156 C 47.683594 29.488281 47.683594 29.488281 47.636719 29.589844 L 47.585938 29.703125 L 47.554688 29.765625 C 47.503906 29.875 47.453125 29.984375 47.402344 30.097656 L 47.371094 30.167969 C 46.816406 31.382812 46.328125 32.628906 45.859375 33.878906 C 45.839844 33.933594 45.820312 33.988281 45.800781 34.039062 C 44.800781 36.6875 44.101562 39.464844 43.269531 45.394531 C 43.261719 45.464844 43.257812 45.53125 43.25 45.601562 C 43.164062 46.53125 43.121094 47.46875 43.078125 48.402344 C 43.074219 48.496094 43.066406 48.589844 43.0625 48.683594 C 43.03125 49.320312 43.03125 49.953125 43.023438 50.589844 C 43.003906 52.59375 43.003906 52.59375 42.933594 53.277344 L 42.921875 53.398438 C 42.8125 54.457031 42.617188 55.59375 41.992188 56.480469 C 41.757812 56.785156 41.519531 56.996094 41.164062 57.148438 C 40.917969 57.226562 40.664062 57.234375 40.410156 57.191406 C 39.8125 57.058594 39.320312 56.710938 38.875 56.308594 C 38.789062 56.230469 38.703125 56.152344 38.621094 56.074219 L 38.542969 55.996094 C 38.378906 55.839844 38.234375 55.667969 38.089844 55.492188 C 38.046875 55.433594 38 55.378906 37.953125 55.324219 C 37.703125 55.023438 37.476562 54.714844 37.253906 54.394531 L 37.214844 54.335938 C 36.332031 53.0625 35.6875 51.648438 35.125 50.214844 L 35.082031 50.105469 C 34.019531 47.371094 33.300781 44.507812 32.503906 40.429688 L 32.488281 40.34375 C 32.324219 39.433594 32.324219 39.433594 32.328125 39.226562 C 32.382812 39.308594 32.410156 39.367188 32.441406 39.457031 L 32.472656 39.539062 L 32.503906 39.628906 L 32.574219 39.824219 L 32.609375 39.925781 C 33.4375 42.25 34.386719 44.527344 35.480469 46.738281 C 35.519531 46.824219 35.5625 46.90625 35.601562 46.988281 C 35.792969 47.382812 36.003906 47.761719 36.222656 48.140625 C 36.261719 48.207031 36.300781 48.277344 36.339844 48.34375 C 36.722656 49.023438 37.148438 49.695312 37.667969 50.277344 L 37.726562 50.347656 C 38.03125 50.703125 38.363281 51.035156 38.800781 51.214844 C 38.976562 51.269531 39.140625 51.285156 39.320312 51.261719 C 39.453125 51.21875 39.546875 51.160156 39.644531 51.066406 C 39.898438 50.667969 40.007812 50.230469 40.101562 49.777344 L 40.121094 49.6875 C 40.273438 48.90625 40.363281 48.117188 40.46875 47.328125 C 40.757812 45.167969 40.757812 45.167969 40.886719 44.4375 L 40.902344 44.355469 C 41.136719 43.035156 41.410156 41.722656 41.765625 40.425781 C 41.796875 40.3125 41.828125 40.199219 41.859375 40.085938 C 42.105469 39.191406 42.414062 38.308594 42.753906 37.445312 C 42.789062 37.351562 42.824219 37.261719 42.859375 37.167969 C 42.984375 36.847656 43.113281 36.53125 43.265625 36.21875 C 43.3125 36.121094 43.355469 36.023438 43.398438 35.921875 C 43.527344 35.636719 43.660156 35.355469 43.804688 35.078125 C 43.832031 35.019531 43.863281 34.960938 43.890625 34.902344 C 44.464844 33.738281 45.132812 32.613281 45.902344 31.566406 C 45.917969 31.539062 45.9375 31.515625 45.957031 31.492188 C 46.496094 30.75 47.074219 30.035156 47.679688 29.347656 " fill-opacity="1" fill-rule="nonzero"/><path fill="#607ec1" d="M 5.847656 8.484375 L 5.914062 8.515625 L 4.832031 9.589844 L 4.769531 9.558594 C 5.515625 8.761719 5.515625 8.761719 5.847656 8.484375 " fill-opacity="1" fill-rule="nonzero"/><g fill="#20438e" fill-opacity="1"><g transform="translate(92.526638, 43.475872)"><g><path d="M 1.265625 -10.671875 L 6.109375 -10.671875 C 7.265625 -10.671875 8.285156 -10.445312 9.171875 -10 C 10.066406 -9.5625 10.757812 -8.941406 11.25 -8.140625 C 11.738281 -7.335938 11.984375 -6.398438 11.984375 -5.328125 C 11.984375 -4.265625 11.738281 -3.332031 11.25 -2.53125 C 10.757812 -1.726562 10.066406 -1.101562 9.171875 -0.65625 C 8.285156 -0.21875 7.265625 0 6.109375 0 L 1.265625 0 Z M 5.984375 -2.03125 C 7.054688 -2.03125 7.90625 -2.328125 8.53125 -2.921875 C 9.164062 -3.515625 9.484375 -4.316406 9.484375 -5.328125 C 9.484375 -6.347656 9.164062 -7.15625 8.53125 -7.75 C 7.90625 -8.34375 7.054688 -8.640625 5.984375 -8.640625 L 3.734375 -8.640625 L 3.734375 -2.03125 Z M 5.984375 -2.03125 "/></g></g></g><g fill="#20438e" fill-opacity="1"><g transform="translate(110.07891, 43.475872)"><g><path d="M 9.515625 -1.984375 L 9.515625 0 L 1.265625 0 L 1.265625 -10.671875 L 9.328125 -10.671875 L 9.328125 -8.6875 L 3.71875 -8.6875 L 3.71875 -6.375 L 8.671875 -6.375 L 8.671875 -4.453125 L 3.71875 -4.453125 L 3.71875 -1.984375 Z M 9.515625 -1.984375 "/></g></g></g><g fill="#20438e" fill-opacity="1"><g transform="translate(125.269843, 43.475872)"><g><path d="M 11.046875 -10.671875 L 11.046875 0 L 9.015625 0 L 3.703125 -6.46875 L 3.703125 0 L 1.265625 0 L 1.265625 -10.671875 L 3.3125 -10.671875 L 8.609375 -4.1875 L 8.609375 -10.671875 Z M 11.046875 -10.671875 "/></g></g></g><g fill="#20438e" fill-opacity="1"><g transform="translate(142.547892, 43.475872)"><g><path d="M 3.46875 -8.65625 L 0.0625 -8.65625 L 0.0625 -10.671875 L 9.359375 -10.671875 L 9.359375 -8.65625 L 5.9375 -8.65625 L 5.9375 0 L 3.46875 0 Z M 3.46875 -8.65625 "/></g></g></g><g fill="#20438e" fill-opacity="1"><g transform="translate(156.931409, 43.475872)"><g><path d="M 8.28125 -2.28125 L 3.34375 -2.28125 L 2.390625 0 L -0.140625 0 L 4.609375 -10.671875 L 7.046875 -10.671875 L 11.828125 0 L 9.234375 0 Z M 7.515625 -4.15625 L 5.8125 -8.234375 L 4.125 -4.15625 Z M 7.515625 -4.15625 "/></g></g></g><g fill="#20438e" fill-opacity="1"><g transform="translate(173.569618, 43.475872)"><g><path d="M 1.265625 -10.671875 L 3.734375 -10.671875 L 3.734375 -2.015625 L 9.078125 -2.015625 L 9.078125 0 L 1.265625 0 Z M 1.265625 -10.671875 "/></g></g></g></svg>