<svg xmlns="http://www.w3.org/2000/svg" viewBox="0 0 320 80" preserveAspectRatio="xMidYMid meet"><defs><g/></defs><g fill="#0077b6" fill-opacity="1"><g transform="translate(53.932487, 28.265257)"><g><path d="M 6.828125 0.265625 C 5.617188 0.265625 4.453125 0.101562 3.328125 -0.21875 C 2.203125 -0.550781 1.296875 -0.976562 0.609375 -1.5 L 1.8125 -4.171875 C 2.46875 -3.691406 3.242188 -3.304688 4.140625 -3.015625 C 5.046875 -2.722656 5.945312 -2.578125 6.84375 -2.578125 C 7.851562 -2.578125 8.597656 -2.722656 9.078125 -3.015625 C 9.554688 -3.316406 9.796875 -3.710938 9.796875 -4.203125 C 9.796875 -4.566406 9.648438 -4.867188 9.359375 -5.109375 C 9.078125 -5.347656 8.710938 -5.539062 8.265625 -5.6875 C 7.828125 -5.832031 7.234375 -5.992188 6.484375 -6.171875 C 5.316406 -6.453125 4.363281 -6.726562 3.625 -7 C 2.882812 -7.28125 2.25 -7.722656 1.71875 -8.328125 C 1.1875 -8.941406 0.921875 -9.757812 0.921875 -10.78125 C 0.921875 -11.664062 1.160156 -12.46875 1.640625 -13.1875 C 2.117188 -13.90625 2.835938 -14.472656 3.796875 -14.890625 C 4.765625 -15.316406 5.945312 -15.53125 7.34375 -15.53125 C 8.320312 -15.53125 9.273438 -15.410156 10.203125 -15.171875 C 11.140625 -14.941406 11.957031 -14.609375 12.65625 -14.171875 L 11.5625 -11.5 C 10.144531 -12.289062 8.734375 -12.6875 7.328125 -12.6875 C 6.335938 -12.6875 5.601562 -12.523438 5.125 -12.203125 C 4.65625 -11.890625 4.421875 -11.472656 4.421875 -10.953125 C 4.421875 -10.429688 4.691406 -10.039062 5.234375 -9.78125 C 5.785156 -9.53125 6.625 -9.28125 7.75 -9.03125 C 8.90625 -8.75 9.851562 -8.46875 10.59375 -8.1875 C 11.34375 -7.914062 11.984375 -7.484375 12.515625 -6.890625 C 13.046875 -6.296875 13.3125 -5.488281 13.3125 -4.46875 C 13.3125 -3.59375 13.066406 -2.796875 12.578125 -2.078125 C 12.085938 -1.359375 11.351562 -0.785156 10.375 -0.359375 C 9.40625 0.0546875 8.222656 0.265625 6.828125 0.265625 Z M 6.828125 0.265625 "/></g></g></g><g fill="#0077b6" fill-opacity="1"><g transform="translate(67.846316, 28.265257)"><g><path d="M 8.421875 -15.265625 C 9.773438 -15.265625 10.945312 -15.039062 11.9375 -14.59375 C 12.9375 -14.144531 13.703125 -13.503906 14.234375 -12.671875 C 14.773438 -11.847656 15.046875 -10.867188 15.046875 -9.734375 C 15.046875 -8.609375 14.773438 -7.628906 14.234375 -6.796875 C 13.703125 -5.960938 12.9375 -5.320312 11.9375 -4.875 C 10.945312 -4.425781 9.773438 -4.203125 8.421875 -4.203125 L 5.34375 -4.203125 L 5.34375 0 L 1.8125 0 L 1.8125 -15.265625 Z M 8.21875 -7.09375 C 9.28125 -7.09375 10.085938 -7.320312 10.640625 -7.78125 C 11.191406 -8.238281 11.46875 -8.890625 11.46875 -9.734375 C 11.46875 -10.585938 11.191406 -11.242188 10.640625 -11.703125 C 10.085938 -12.160156 9.28125 -12.390625 8.21875 -12.390625 L 5.34375 -12.390625 L 5.34375 -7.09375 Z M 8.21875 -7.09375 "/></g></g></g><g fill="#0077b6" fill-opacity="1"><g transform="translate(83.810137, 28.265257)"><g><path d="M 11.53125 0 L 8.59375 -4.25 L 5.34375 -4.25 L 5.34375 0 L 1.8125 0 L 1.8125 -15.265625 L 8.421875 -15.265625 C 9.773438 -15.265625 10.945312 -15.039062 11.9375 -14.59375 C 12.9375 -14.144531 13.703125 -13.503906 14.234375 -12.671875 C 14.773438 -11.847656 15.046875 -10.867188 15.046875 -9.734375 C 15.046875 -8.597656 14.773438 -7.617188 14.234375 -6.796875 C 13.691406 -5.972656 12.914062 -5.34375 11.90625 -4.90625 L 15.328125 0 Z M 11.46875 -9.734375 C 11.46875 -10.585938 11.191406 -11.242188 10.640625 -11.703125 C 10.085938 -12.160156 9.28125 -12.390625 8.21875 -12.390625 L 5.34375 -12.390625 L 5.34375 -7.0625 L 8.21875 -7.0625 C 9.28125 -7.0625 10.085938 -7.296875 10.640625 -7.765625 C 11.191406 -8.234375 11.46875 -8.890625 11.46875 -9.734375 Z M 11.46875 -9.734375 "/></g></g></g><g fill="#0077b6" fill-opacity="1"><g transform="translate(99.839384, 28.265257)"><g><path d="M 1.8125 -15.265625 L 5.34375 -15.265625 L 5.34375 0 L 1.8125 0 Z M 1.8125 -15.265625 "/></g></g></g><g fill="#0077b6" fill-opacity="1"><g transform="translate(106.99257, 28.265257)"><g><path d="M 15.8125 -15.265625 L 15.8125 0 L 12.90625 0 L 5.296875 -9.265625 L 5.296875 0 L 1.8125 0 L 1.8125 -15.265625 L 4.734375 -15.265625 L 12.328125 -6 L 12.328125 -15.265625 Z M 15.8125 -15.265625 "/></g></g></g><g fill="#0077b6" fill-opacity="1"><g transform="translate(124.613839, 28.265257)"><g><path d="M 12.125 -7.875 L 15.359375 -7.875 L 15.359375 -1.671875 C 14.523438 -1.046875 13.5625 -0.566406 12.46875 -0.234375 C 11.382812 0.0976562 10.289062 0.265625 9.1875 0.265625 C 7.601562 0.265625 6.175781 -0.0703125 4.90625 -0.75 C 3.644531 -1.425781 2.648438 -2.363281 1.921875 -3.5625 C 1.203125 -4.757812 0.84375 -6.117188 0.84375 -7.640625 C 0.84375 -9.148438 1.203125 -10.503906 1.921875 -11.703125 C 2.648438 -12.898438 3.648438 -13.835938 4.921875 -14.515625 C 6.203125 -15.191406 7.644531 -15.53125 9.25 -15.53125 C 10.582031 -15.53125 11.796875 -15.300781 12.890625 -14.84375 C 13.984375 -14.394531 14.898438 -13.742188 15.640625 -12.890625 L 13.375 -10.796875 C 12.28125 -11.941406 10.960938 -12.515625 9.421875 -12.515625 C 8.453125 -12.515625 7.585938 -12.3125 6.828125 -11.90625 C 6.066406 -11.5 5.472656 -10.925781 5.046875 -10.1875 C 4.628906 -9.445312 4.421875 -8.597656 4.421875 -7.640625 C 4.421875 -6.691406 4.628906 -5.84375 5.046875 -5.09375 C 5.472656 -4.351562 6.0625 -3.773438 6.8125 -3.359375 C 7.5625 -2.953125 8.414062 -2.75 9.375 -2.75 C 10.394531 -2.75 11.3125 -2.96875 12.125 -3.40625 Z M 12.125 -7.875 "/></g></g></g><g fill="#0077b6" fill-opacity="1"><g transform="translate(141.43639, 28.265257)"><g/></g></g><g fill="#0077b6" fill-opacity="1"><g transform="translate(141.43639, 28.265257)"><g/></g></g><g fill="#0077b6" fill-opacity="1"><g transform="translate(147.612171, 28.265257)"><g/></g></g><g fill="#5c646b" fill-opacity="1"><g transform="translate(48.557572, 47.499712)"><g/></g></g><g fill="#5c646b" fill-opacity="1"><g transform="translate(52.694291, 47.499712)"><g><path d="M 1.875 -11.53125 L 6.578125 -11.53125 C 7.796875 -11.53125 8.867188 -11.285156 9.796875 -10.796875 C 10.734375 -10.316406 11.460938 -9.640625 11.984375 -8.765625 C 12.503906 -7.890625 12.765625 -6.890625 12.765625 -5.765625 C 12.765625 -4.648438 12.503906 -3.65625 11.984375 -2.78125 C 11.460938 -1.90625 10.734375 -1.222656 9.796875 -0.734375 C 8.867188 -0.242188 7.796875 0 6.578125 0 L 1.875 0 Z M 6.515625 -1.0625 C 7.523438 -1.0625 8.40625 -1.257812 9.15625 -1.65625 C 9.914062 -2.0625 10.503906 -2.617188 10.921875 -3.328125 C 11.347656 -4.035156 11.5625 -4.847656 11.5625 -5.765625 C 11.5625 -6.691406 11.347656 -7.507812 10.921875 -8.21875 C 10.503906 -8.925781 9.914062 -9.476562 9.15625 -9.875 C 8.40625 -10.28125 7.523438 -10.484375 6.515625 -10.484375 L 3.09375 -10.484375 L 3.09375 -1.0625 Z M 6.515625 -1.0625 "/></g></g></g><g fill="#5c646b" fill-opacity="1"><g transform="translate(66.122719, 47.499712)"><g><path d="M 10.03125 -1.0625 L 10.03125 0 L 1.875 0 L 1.875 -11.53125 L 9.796875 -11.53125 L 9.796875 -10.484375 L 3.09375 -10.484375 L 3.09375 -6.375 L 9.0625 -6.375 L 9.0625 -5.34375 L 3.09375 -5.34375 L 3.09375 -1.0625 Z M 10.03125 -1.0625 "/></g></g></g><g fill="#5c646b" fill-opacity="1"><g transform="translate(76.964314, 47.499712)"><g><path d="M 11.515625 -11.53125 L 11.515625 0 L 10.515625 0 L 3.09375 -9.359375 L 3.09375 0 L 1.875 0 L 1.875 -11.53125 L 2.890625 -11.53125 L 10.3125 -2.171875 L 10.3125 -11.53125 Z M 11.515625 -11.53125 "/></g></g></g><g fill="#5c646b" fill-opacity="1"><g transform="translate(90.178543, 47.499712)"><g><path d="M 4.125 -10.484375 L 0.0625 -10.484375 L 0.0625 -11.53125 L 9.390625 -11.53125 L 9.390625 -10.484375 L 5.34375 -10.484375 L 5.34375 0 L 4.125 0 Z M 4.125 -10.484375 "/></g></g></g><g fill="#5c646b" fill-opacity="1"><g transform="translate(99.45486, 47.499712)"><g><path d="M 9.109375 -3.078125 L 2.6875 -3.078125 L 1.296875 0 L 0.03125 0 L 5.3125 -11.53125 L 6.515625 -11.53125 L 11.78125 0 L 10.5 0 Z M 8.671875 -4.078125 L 5.90625 -10.265625 L 3.125 -4.078125 Z M 8.671875 -4.078125 "/></g></g></g><g fill="#5c646b" fill-opacity="1"><g transform="translate(111.087332, 47.499712)"><g><path d="M 1.875 -11.53125 L 3.09375 -11.53125 L 3.09375 -1.0625 L 9.5625 -1.0625 L 9.5625 0 L 1.875 0 Z M 1.875 -11.53125 "/></g></g></g><g fill="#5c646b" fill-opacity="1"><g transform="translate(120.616163, 47.499712)"><g/></g></g><path fill="#34659b" d="M 19.269531 7.273438 C 19.296875 7.285156 19.324219 7.292969 19.351562 7.300781 C 20.316406 7.609375 21.265625 7.953125 22.214844 8.300781 C 22.46875 8.394531 22.726562 8.488281 22.980469 8.582031 L 23.3125 8.703125 C 23.78125 8.875 24.25 9.042969 24.71875 9.214844 L 24.78125 9.238281 C 24.882812 9.277344 24.984375 9.3125 25.085938 9.351562 C 27.363281 10.1875 29.699219 10.941406 32.105469 11.289062 L 32.203125 11.300781 C 32.867188 11.402344 33.539062 11.4375 34.210938 11.480469 C 33.328125 12.1875 31.695312 12.390625 30.609375 12.5625 C 30.28125 12.609375 29.953125 12.652344 29.621094 12.691406 L 29.527344 12.699219 C 26.945312 12.988281 24.277344 12.617188 20.203125 11.335938 C 19.28125 11.003906 18.347656 10.71875 17.390625 10.492188 L 17.273438 10.464844 C 16.433594 10.265625 15.558594 10.105469 14.695312 10.101562 L 14.589844 10.101562 C 14.515625 10.101562 14.445312 10.101562 14.371094 10.101562 C 14.261719 10.101562 14.152344 10.101562 14.042969 10.101562 C 12.917969 10.09375 11.84375 10.324219 10.859375 10.878906 C 10.535156 11.066406 10.246094 11.285156 9.96875 11.542969 L 9.882812 11.625 C 9.546875 11.945312 9.285156 12.324219 9.046875 12.722656 L 9.011719 12.777344 C 8.335938 13.878906 7.917969 15.335938 7.863281 16.625 C 7.863281 16.710938 7.863281 16.792969 7.859375 16.878906 L 7.859375 16.972656 C 7.855469 17.644531 7.859375 18.300781 7.964844 18.964844 L 7.980469 19.09375 C 8.160156 20.3125 8.460938 21.503906 8.792969 22.691406 L 8.8125 22.761719 C 8.976562 23.347656 9.15625 23.929688 9.34375 24.507812 C 9.394531 24.660156 9.445312 24.816406 9.496094 24.96875 C 9.992188 26.492188 9.992188 26.492188 10.503906 28.007812 C 10.726562 28.65625 10.941406 29.304688 11.152344 29.957031 C 11.183594 30.054688 11.210938 30.152344 11.242188 30.246094 C 12.925781 35.480469 12.925781 35.480469 12.867188 37.152344 C 12.796875 37.082031 12.773438 37.027344 12.734375 36.9375 L 12.691406 36.84375 L 12.644531 36.742188 C 12.402344 36.203125 12.132812 35.675781 11.847656 35.15625 C 11.773438 35.027344 11.703125 34.894531 11.636719 34.761719 C 11.484375 34.46875 11.324219 34.1875 11.15625 33.902344 C 11.035156 33.699219 10.917969 33.492188 10.804688 33.285156 C 10.664062 33.023438 10.515625 32.765625 10.363281 32.511719 C 10.316406 32.429688 10.265625 32.347656 10.21875 32.265625 C 9.601562 31.21875 8.976562 30.179688 8.324219 29.152344 C 8.226562 29 8.132812 28.847656 8.035156 28.691406 C 7.851562 28.390625 7.660156 28.09375 7.464844 27.796875 C 7.339844 27.601562 7.214844 27.410156 7.09375 27.214844 C 7.003906 27.066406 6.910156 26.917969 6.8125 26.773438 L 6.769531 26.703125 C 6.617188 26.464844 6.460938 26.234375 6.308594 26 C 5.683594 25.050781 5.097656 24.089844 4.585938 23.074219 L 4.535156 22.976562 C 4.113281 22.132812 3.773438 21.257812 3.472656 20.367188 L 3.4375 20.265625 C 2.726562 18.132812 2.4375 15.792969 2.863281 13.570312 C 2.980469 12.996094 3.15625 12.4375 3.375 11.894531 L 3.402344 11.824219 C 3.71875 11.046875 4.171875 10.332031 4.714844 9.695312 L 4.800781 9.59375 C 5.148438 9.175781 5.527344 8.789062 5.957031 8.453125 C 5.996094 8.421875 6.039062 8.386719 6.078125 8.351562 C 6.324219 8.148438 6.574219 7.957031 6.847656 7.785156 L 6.980469 7.699219 C 8.316406 6.832031 9.785156 6.273438 11.371094 6.097656 L 11.457031 6.085938 C 14.039062 5.796875 16.664062 6.441406 19.269531 7.273438 " fill-opacity="1" fill-rule="nonzero"/><path fill="#8a8f9c" d="M 6.878906 29.984375 C 6.992188 30.097656 7.101562 30.214844 7.203125 30.335938 L 7.25 30.390625 C 7.410156 30.582031 7.558594 30.777344 7.707031 30.972656 L 7.761719 31.042969 C 7.980469 31.332031 8.195312 31.621094 8.40625 31.910156 L 8.453125 31.976562 C 8.742188 32.375 9.015625 32.785156 9.289062 33.195312 L 9.34375 33.28125 C 9.636719 33.714844 9.921875 34.15625 10.191406 34.605469 L 10.234375 34.675781 C 10.382812 34.917969 10.527344 35.164062 10.667969 35.410156 C 10.730469 35.519531 10.792969 35.625 10.855469 35.734375 C 10.976562 35.933594 11.089844 36.136719 11.191406 36.347656 C 11.257812 36.476562 11.324219 36.605469 11.394531 36.734375 C 12.785156 39.371094 13.664062 42.101562 14.320312 46.007812 L 14.351562 46.199219 C 14.398438 46.484375 14.445312 46.765625 14.492188 47.050781 C 14.660156 48.097656 14.832031 49.148438 15.09375 50.175781 L 15.113281 50.25 C 15.238281 50.738281 15.386719 51.210938 15.574219 51.675781 L 15.613281 51.765625 C 15.933594 52.550781 16.40625 53.28125 17.074219 53.808594 C 17.542969 54.167969 18.097656 54.476562 18.679688 54.589844 C 18.964844 54.625 19.226562 54.578125 19.496094 54.476562 C 20.113281 54.199219 20.59375 53.628906 20.984375 53.09375 C 22.050781 51.609375 22.816406 49.871094 23.476562 48.171875 L 23.527344 48.039062 C 23.945312 46.964844 24.339844 45.886719 24.71875 44.796875 L 24.746094 44.714844 C 25.28125 43.167969 25.777344 41.605469 26.261719 40.042969 C 26.398438 39.609375 26.535156 39.171875 26.675781 38.738281 C 26.746094 38.519531 26.816406 38.300781 26.886719 38.082031 C 27.507812 36.097656 27.507812 36.097656 27.871094 35.367188 L 27.910156 35.285156 C 28.097656 34.914062 28.296875 34.558594 28.539062 34.222656 L 28.578125 34.167969 C 28.964844 33.632812 29.433594 33.160156 30.027344 32.871094 C 30.316406 32.746094 30.582031 32.695312 30.898438 32.726562 C 31.140625 32.773438 31.335938 32.867188 31.523438 33.027344 C 31.765625 33.28125 31.929688 33.574219 32.042969 33.902344 L 32.078125 34 C 32.25 34.515625 32.304688 35.050781 32.296875 35.589844 L 32.25 35.554688 C 32.09375 35.4375 31.941406 35.320312 31.757812 35.25 C 31.582031 35.226562 31.445312 35.230469 31.277344 35.292969 C 30.945312 35.4375 30.671875 35.703125 30.460938 35.992188 C 30.367188 36.121094 30.28125 36.253906 30.195312 36.386719 L 30.15625 36.449219 C 28.566406 38.980469 27.847656 42.152344 27.035156 45.089844 C 26.546875 46.851562 26.039062 48.609375 25.449219 50.339844 L 25.414062 50.449219 C 25.265625 50.882812 25.109375 51.3125 24.941406 51.742188 L 24.898438 51.851562 C 23.25 56.039062 23.25 56.039062 21.648438 57.375 C 20.957031 57.925781 20.179688 58.238281 19.308594 58.378906 C 18.539062 58.476562 17.773438 58.332031 17.0625 58.035156 C 16.148438 57.628906 15.367188 56.9375 14.78125 56.136719 L 14.734375 56.074219 C 14.5 55.757812 14.296875 55.4375 14.117188 55.089844 C 14.082031 55.027344 14.046875 54.960938 14.011719 54.898438 C 13.304688 53.644531 12.910156 52.195312 12.636719 50.789062 L 12.625 50.714844 C 12.5 50.074219 12.402344 49.425781 12.300781 48.777344 C 12.246094 48.417969 12.191406 48.058594 12.132812 47.699219 L 12.117188 47.59375 C 11.984375 46.742188 11.84375 45.898438 11.691406 45.050781 L 11.671875 44.960938 C 11.167969 42.160156 10.429688 39.425781 9.492188 36.738281 L 9.429688 36.558594 C 9.386719 36.433594 9.34375 36.308594 9.296875 36.183594 C 9.277344 36.125 9.253906 36.0625 9.234375 36.003906 C 8.925781 35.125 8.59375 34.257812 8.25 33.394531 L 8.222656 33.328125 C 7.941406 32.613281 7.648438 31.898438 7.351562 31.1875 C 7.289062 31.039062 7.226562 30.890625 7.164062 30.738281 C 7.128906 30.648438 7.089844 30.5625 7.054688 30.472656 L 6.984375 30.308594 L 6.953125 30.230469 C 6.878906 30.054688 6.878906 30.054688 6.878906 29.984375 M 44.050781 5.523438 L 44.160156 5.542969 C 45.246094 5.738281 46.300781 6.117188 47.203125 6.765625 L 47.269531 6.8125 C 48.214844 7.488281 48.875 8.273438 49.359375 9.332031 C 49.820312 10.371094 50.039062 11.488281 50.175781 12.613281 L 50.183594 12.679688 C 50.257812 13.3125 50.269531 13.949219 50.269531 14.589844 L 50.269531 14.707031 C 50.269531 15.320312 50.253906 15.929688 50.199219 16.542969 L 50.191406 16.609375 C 49.945312 19.398438 49.257812 22.15625 48.03125 25.304688 L 47.992188 25.402344 C 47.402344 26.855469 46.722656 28.28125 45.929688 29.636719 L 45.871094 29.742188 C 45.226562 30.84375 44.550781 31.992188 43.734375 32.980469 L 43.667969 33.011719 C 43.6875 32.710938 43.730469 32.417969 43.78125 32.121094 L 43.792969 32.046875 C 44.0625 30.4375 44.433594 28.835938 44.890625 27.273438 C 44.933594 27.125 44.976562 26.976562 45.015625 26.828125 L 45.078125 26.605469 C 45.1875 26.222656 45.292969 25.839844 45.40625 25.457031 C 45.96875 23.53125 46.511719 21.601562 46.796875 19.609375 L 46.8125 19.507812 C 46.898438 18.878906 46.929688 18.253906 46.929688 17.621094 L 46.929688 17.519531 C 46.921875 15.554688 46.421875 13.605469 45.453125 11.894531 C 45.167969 11.40625 44.820312 10.921875 44.410156 10.535156 L 44.371094 10.492188 L 44.371094 10.429688 L 44.316406 10.40625 C 44.230469 10.359375 44.167969 10.300781 44.097656 10.234375 C 43.367188 9.566406 42.441406 9.167969 41.484375 8.953125 C 41.28125 8.910156 41.078125 8.875 40.871094 8.84375 L 40.796875 8.832031 C 40.382812 8.777344 39.964844 8.765625 39.546875 8.765625 C 39.476562 8.765625 39.40625 8.765625 39.335938 8.765625 C 38.550781 8.761719 37.773438 8.84375 36.996094 8.941406 C 36.765625 8.972656 36.53125 9 36.296875 9.027344 L 36.230469 9.035156 C 35.820312 9.085938 35.414062 9.128906 35.003906 9.167969 L 34.925781 9.175781 C 34.761719 9.191406 34.597656 9.207031 34.433594 9.21875 L 34.308594 9.226562 C 33.832031 9.261719 33.355469 9.257812 32.878906 9.257812 C 32.777344 9.257812 32.675781 9.257812 32.574219 9.257812 C 30.691406 9.273438 28.773438 9.011719 27.074219 8.167969 L 27 8.128906 C 26.855469 8.058594 26.707031 7.984375 26.566406 7.910156 L 26.566406 7.878906 L 26.625 7.878906 C 29.605469 7.75 32.476562 7.226562 36.113281 6.390625 C 37.59375 6.046875 39.074219 5.71875 40.578125 5.523438 L 40.648438 5.515625 C 41.753906 5.371094 42.949219 5.328125 44.050781 5.523438 " fill-opacity="1" fill-rule="nonzero"/><path fill="#34659b" d="M 47.777344 29.507812 L 47.808594 29.570312 C 47.78125 29.648438 47.78125 29.648438 47.734375 29.75 L 47.683594 29.863281 L 47.652344 29.925781 C 47.601562 30.035156 47.550781 30.148438 47.5 30.261719 L 47.464844 30.332031 C 46.910156 31.554688 46.421875 32.808594 45.953125 34.066406 C 45.933594 34.121094 45.914062 34.171875 45.894531 34.226562 C 44.894531 36.890625 44.191406 39.683594 43.355469 45.648438 C 43.351562 45.71875 43.34375 45.789062 43.339844 45.855469 C 43.25 46.792969 43.207031 47.734375 43.164062 48.675781 C 43.160156 48.769531 43.15625 48.863281 43.152344 48.957031 C 43.117188 49.597656 43.117188 50.234375 43.113281 50.875 C 43.09375 52.890625 43.09375 52.890625 43.023438 53.578125 L 43.011719 53.703125 C 42.898438 54.765625 42.703125 55.910156 42.078125 56.804688 C 41.84375 57.105469 41.605469 57.320312 41.25 57.472656 C 41 57.554688 40.746094 57.558594 40.492188 57.515625 C 39.894531 57.382812 39.398438 57.035156 38.953125 56.628906 C 38.867188 56.550781 38.785156 56.472656 38.699219 56.390625 L 38.621094 56.316406 C 38.457031 56.15625 38.3125 55.984375 38.167969 55.804688 C 38.121094 55.75 38.078125 55.691406 38.03125 55.636719 C 37.78125 55.335938 37.550781 55.027344 37.332031 54.703125 L 37.289062 54.644531 C 36.402344 53.363281 35.761719 51.941406 35.195312 50.5 L 35.152344 50.386719 C 34.089844 47.640625 33.367188 44.757812 32.570312 40.65625 L 32.554688 40.566406 C 32.390625 39.65625 32.390625 39.65625 32.394531 39.445312 C 32.449219 39.527344 32.476562 39.585938 32.507812 39.675781 L 32.539062 39.757812 L 32.570312 39.851562 L 32.640625 40.042969 L 32.675781 40.148438 C 33.503906 42.484375 34.457031 44.777344 35.550781 47.003906 C 35.59375 47.085938 35.632812 47.171875 35.675781 47.253906 C 35.867188 47.648438 36.078125 48.03125 36.296875 48.414062 C 36.335938 48.480469 36.375 48.546875 36.414062 48.617188 C 36.796875 49.300781 37.222656 49.976562 37.746094 50.5625 L 37.804688 50.632812 C 38.109375 50.988281 38.441406 51.324219 38.878906 51.503906 C 39.054688 51.558594 39.21875 51.578125 39.402344 51.550781 C 39.53125 51.507812 39.628906 51.449219 39.726562 51.355469 C 39.976562 50.953125 40.089844 50.515625 40.183594 50.054688 L 40.203125 49.96875 C 40.355469 49.183594 40.449219 48.386719 40.550781 47.59375 C 40.839844 45.421875 40.839844 45.421875 40.972656 44.683594 L 40.984375 44.605469 C 41.222656 43.273438 41.492188 41.953125 41.851562 40.652344 C 41.882812 40.539062 41.914062 40.421875 41.945312 40.308594 C 42.191406 39.410156 42.503906 38.523438 42.839844 37.652344 C 42.875 37.558594 42.910156 37.46875 42.945312 37.375 C 43.070312 37.050781 43.203125 36.734375 43.351562 36.417969 C 43.398438 36.320312 43.441406 36.222656 43.488281 36.121094 C 43.617188 35.835938 43.75 35.550781 43.894531 35.269531 C 43.921875 35.210938 43.953125 35.152344 43.980469 35.09375 C 44.554688 33.921875 45.226562 32.789062 45.996094 31.738281 C 46.011719 31.710938 46.03125 31.6875 46.050781 31.664062 C 46.59375 30.917969 47.167969 30.199219 47.777344 29.507812 " fill-opacity="1" fill-rule="nonzero"/><path fill="#607ec1" d="M 5.859375 8.515625 L 5.925781 8.550781 L 4.839844 9.632812 L 4.777344 9.601562 C 5.527344 8.800781 5.527344 8.800781 5.859375 8.515625 " fill-opacity="1" fill-rule="nonzero"/><g fill="#5c646b" fill-opacity="1"><g transform="translate(131.014008, 47.499712)"><g><path d="M 9.109375 -3.078125 L 2.6875 -3.078125 L 1.296875 0 L 0.03125 0 L 5.3125 -11.53125 L 6.515625 -11.53125 L 11.78125 0 L 10.5 0 Z M 8.671875 -4.078125 L 5.90625 -10.265625 L 3.125 -4.078125 Z M 8.671875 -4.078125 "/></g></g></g><g fill="#5c646b" fill-opacity="1"><g transform="translate(142.646481, 47.499712)"><g><path d="M 5.0625 0.09375 C 4.207031 0.09375 3.382812 -0.0390625 2.59375 -0.3125 C 1.8125 -0.582031 1.207031 -0.945312 0.78125 -1.40625 L 1.25 -2.34375 C 1.664062 -1.925781 2.21875 -1.585938 2.90625 -1.328125 C 3.601562 -1.066406 4.320312 -0.9375 5.0625 -0.9375 C 6.09375 -0.9375 6.863281 -1.125 7.375 -1.5 C 7.894531 -1.882812 8.15625 -2.378906 8.15625 -2.984375 C 8.15625 -3.441406 8.015625 -3.804688 7.734375 -4.078125 C 7.453125 -4.359375 7.109375 -4.570312 6.703125 -4.71875 C 6.296875 -4.863281 5.734375 -5.023438 5.015625 -5.203125 C 4.140625 -5.421875 3.441406 -5.632812 2.921875 -5.84375 C 2.410156 -6.050781 1.972656 -6.363281 1.609375 -6.78125 C 1.242188 -7.195312 1.0625 -7.757812 1.0625 -8.46875 C 1.0625 -9.050781 1.210938 -9.582031 1.515625 -10.0625 C 1.828125 -10.539062 2.300781 -10.921875 2.9375 -11.203125 C 3.570312 -11.492188 4.363281 -11.640625 5.3125 -11.640625 C 5.96875 -11.640625 6.609375 -11.546875 7.234375 -11.359375 C 7.867188 -11.179688 8.421875 -10.929688 8.890625 -10.609375 L 8.46875 -9.640625 C 7.988281 -9.960938 7.472656 -10.203125 6.921875 -10.359375 C 6.367188 -10.515625 5.832031 -10.59375 5.3125 -10.59375 C 4.300781 -10.59375 3.539062 -10.394531 3.03125 -10 C 2.519531 -9.613281 2.265625 -9.113281 2.265625 -8.5 C 2.265625 -8.039062 2.398438 -7.671875 2.671875 -7.390625 C 2.953125 -7.109375 3.304688 -6.894531 3.734375 -6.75 C 4.160156 -6.601562 4.726562 -6.441406 5.4375 -6.265625 C 6.28125 -6.054688 6.960938 -5.847656 7.484375 -5.640625 C 8.015625 -5.441406 8.457031 -5.132812 8.8125 -4.71875 C 9.175781 -4.3125 9.359375 -3.753906 9.359375 -3.046875 C 9.359375 -2.460938 9.203125 -1.929688 8.890625 -1.453125 C 8.578125 -0.972656 8.097656 -0.59375 7.453125 -0.3125 C 6.804688 -0.0390625 6.007812 0.09375 5.0625 0.09375 Z M 5.0625 0.09375 "/></g></g></g><g fill="#5c646b" fill-opacity="1"><g transform="translate(152.598331, 47.499712)"><g><path d="M 5.0625 0.09375 C 4.207031 0.09375 3.382812 -0.0390625 2.59375 -0.3125 C 1.8125 -0.582031 1.207031 -0.945312 0.78125 -1.40625 L 1.25 -2.34375 C 1.664062 -1.925781 2.21875 -1.585938 2.90625 -1.328125 C 3.601562 -1.066406 4.320312 -0.9375 5.0625 -0.9375 C 6.09375 -0.9375 6.863281 -1.125 7.375 -1.5 C 7.894531 -1.882812 8.15625 -2.378906 8.15625 -2.984375 C 8.15625 -3.441406 8.015625 -3.804688 7.734375 -4.078125 C 7.453125 -4.359375 7.109375 -4.570312 6.703125 -4.71875 C 6.296875 -4.863281 5.734375 -5.023438 5.015625 -5.203125 C 4.140625 -5.421875 3.441406 -5.632812 2.921875 -5.84375 C 2.410156 -6.050781 1.972656 -6.363281 1.609375 -6.78125 C 1.242188 -7.195312 1.0625 -7.757812 1.0625 -8.46875 C 1.0625 -9.050781 1.210938 -9.582031 1.515625 -10.0625 C 1.828125 -10.539062 2.300781 -10.921875 2.9375 -11.203125 C 3.570312 -11.492188 4.363281 -11.640625 5.3125 -11.640625 C 5.96875 -11.640625 6.609375 -11.546875 7.234375 -11.359375 C 7.867188 -11.179688 8.421875 -10.929688 8.890625 -10.609375 L 8.46875 -9.640625 C 7.988281 -9.960938 7.472656 -10.203125 6.921875 -10.359375 C 6.367188 -10.515625 5.832031 -10.59375 5.3125 -10.59375 C 4.300781 -10.59375 3.539062 -10.394531 3.03125 -10 C 2.519531 -9.613281 2.265625 -9.113281 2.265625 -8.5 C 2.265625 -8.039062 2.398438 -7.671875 2.671875 -7.390625 C 2.953125 -7.109375 3.304688 -6.894531 3.734375 -6.75 C 4.160156 -6.601562 4.726562 -6.441406 5.4375 -6.265625 C 6.28125 -6.054688 6.960938 -5.847656 7.484375 -5.640625 C 8.015625 -5.441406 8.457031 -5.132812 8.8125 -4.71875 C 9.175781 -4.3125 9.359375 -3.753906 9.359375 -3.046875 C 9.359375 -2.460938 9.203125 -1.929688 8.890625 -1.453125 C 8.578125 -0.972656 8.097656 -0.59375 7.453125 -0.3125 C 6.804688 -0.0390625 6.007812 0.09375 5.0625 0.09375 Z M 5.0625 0.09375 "/></g></g></g><g fill="#5c646b" fill-opacity="1"><g transform="translate(162.550182, 47.499712)"><g><path d="M 6.921875 0.09375 C 5.773438 0.09375 4.738281 -0.160156 3.8125 -0.671875 C 2.882812 -1.179688 2.160156 -1.878906 1.640625 -2.765625 C 1.117188 -3.660156 0.859375 -4.660156 0.859375 -5.765625 C 0.859375 -6.878906 1.117188 -7.878906 1.640625 -8.765625 C 2.160156 -9.660156 2.882812 -10.363281 3.8125 -10.875 C 4.738281 -11.382812 5.773438 -11.640625 6.921875 -11.640625 C 8.066406 -11.640625 9.097656 -11.382812 10.015625 -10.875 C 10.929688 -10.375 11.648438 -9.675781 12.171875 -8.78125 C 12.703125 -7.882812 12.96875 -6.878906 12.96875 -5.765625 C 12.96875 -4.660156 12.703125 -3.660156 12.171875 -2.765625 C 11.648438 -1.867188 10.929688 -1.164062 10.015625 -0.65625 C 9.097656 -0.15625 8.066406 0.09375 6.921875 0.09375 Z M 6.921875 -0.984375 C 7.835938 -0.984375 8.660156 -1.1875 9.390625 -1.59375 C 10.128906 -2.007812 10.707031 -2.582031 11.125 -3.3125 C 11.539062 -4.050781 11.75 -4.867188 11.75 -5.765625 C 11.75 -6.671875 11.539062 -7.488281 11.125 -8.21875 C 10.707031 -8.945312 10.128906 -9.515625 9.390625 -9.921875 C 8.660156 -10.335938 7.835938 -10.546875 6.921875 -10.546875 C 6.015625 -10.546875 5.1875 -10.335938 4.4375 -9.921875 C 3.695312 -9.515625 3.113281 -8.945312 2.6875 -8.21875 C 2.269531 -7.488281 2.0625 -6.671875 2.0625 -5.765625 C 2.0625 -4.867188 2.269531 -4.050781 2.6875 -3.3125 C 3.113281 -2.582031 3.695312 -2.007812 4.4375 -1.59375 C 5.1875 -1.1875 6.015625 -0.984375 6.921875 -0.984375 Z M 6.921875 -0.984375 "/></g></g></g><g fill="#5c646b" fill-opacity="1"><g transform="translate(176.192797, 47.499712)"><g><path d="M 6.890625 0.09375 C 5.742188 0.09375 4.710938 -0.15625 3.796875 -0.65625 C 2.878906 -1.164062 2.160156 -1.867188 1.640625 -2.765625 C 1.117188 -3.660156 0.859375 -4.660156 0.859375 -5.765625 C 0.859375 -6.878906 1.117188 -7.882812 1.640625 -8.78125 C 2.160156 -9.675781 2.878906 -10.375 3.796875 -10.875 C 4.722656 -11.382812 5.757812 -11.640625 6.90625 -11.640625 C 7.757812 -11.640625 8.550781 -11.492188 9.28125 -11.203125 C 10.007812 -10.921875 10.625 -10.503906 11.125 -9.953125 L 10.359375 -9.1875 C 9.453125 -10.09375 8.3125 -10.546875 6.9375 -10.546875 C 6.03125 -10.546875 5.203125 -10.335938 4.453125 -9.921875 C 3.703125 -9.503906 3.113281 -8.929688 2.6875 -8.203125 C 2.269531 -7.484375 2.0625 -6.671875 2.0625 -5.765625 C 2.0625 -4.867188 2.269531 -4.054688 2.6875 -3.328125 C 3.113281 -2.597656 3.703125 -2.023438 4.453125 -1.609375 C 5.203125 -1.191406 6.03125 -0.984375 6.9375 -0.984375 C 8.320312 -0.984375 9.460938 -1.445312 10.359375 -2.375 L 11.125 -1.59375 C 10.625 -1.050781 10.003906 -0.632812 9.265625 -0.34375 C 8.535156 -0.0507812 7.742188 0.09375 6.890625 0.09375 Z M 6.890625 0.09375 "/></g></g></g><g fill="#5c646b" fill-opacity="1"><g transform="translate(187.858217, 47.499712)"><g><path d="M 1.875 -11.53125 L 3.09375 -11.53125 L 3.09375 0 L 1.875 0 Z M 1.875 -11.53125 "/></g></g></g><g fill="#5c646b" fill-opacity="1"><g transform="translate(192.652891, 47.499712)"><g><path d="M 9.109375 -3.078125 L 2.6875 -3.078125 L 1.296875 0 L 0.03125 0 L 5.3125 -11.53125 L 6.515625 -11.53125 L 11.78125 0 L 10.5 0 Z M 8.671875 -4.078125 L 5.90625 -10.265625 L 3.125 -4.078125 Z M 8.671875 -4.078125 "/></g></g></g><g fill="#5c646b" fill-opacity="1"><g transform="translate(204.285363, 47.499712)"><g><path d="M 4.125 -10.484375 L 0.0625 -10.484375 L 0.0625 -11.53125 L 9.390625 -11.53125 L 9.390625 -10.484375 L 5.34375 -10.484375 L 5.34375 0 L 4.125 0 Z M 4.125 -10.484375 "/></g></g></g><g fill="#5c646b" fill-opacity="1"><g transform="translate(213.561681, 47.499712)"><g><path d="M 10.03125 -1.0625 L 10.03125 0 L 1.875 0 L 1.875 -11.53125 L 9.796875 -11.53125 L 9.796875 -10.484375 L 3.09375 -10.484375 L 3.09375 -6.375 L 9.0625 -6.375 L 9.0625 -5.34375 L 3.09375 -5.34375 L 3.09375 -1.0625 Z M 10.03125 -1.0625 "/></g></g></g><g fill="#5c646b" fill-opacity="1"><g transform="translate(224.403275, 47.499712)"><g><path d="M 5.0625 0.09375 C 4.207031 0.09375 3.382812 -0.0390625 2.59375 -0.3125 C 1.8125 -0.582031 1.207031 -0.945312 0.78125 -1.40625 L 1.25 -2.34375 C 1.664062 -1.925781 2.21875 -1.585938 2.90625 -1.328125 C 3.601562 -1.066406 4.320312 -0.9375 5.0625 -0.9375 C 6.09375 -0.9375 6.863281 -1.125 7.375 -1.5 C 7.894531 -1.882812 8.15625 -2.378906 8.15625 -2.984375 C 8.15625 -3.441406 8.015625 -3.804688 7.734375 -4.078125 C 7.453125 -4.359375 7.109375 -4.570312 6.703125 -4.71875 C 6.296875 -4.863281 5.734375 -5.023438 5.015625 -5.203125 C 4.140625 -5.421875 3.441406 -5.632812 2.921875 -5.84375 C 2.410156 -6.050781 1.972656 -6.363281 1.609375 -6.78125 C 1.242188 -7.195312 1.0625 -7.757812 1.0625 -8.46875 C 1.0625 -9.050781 1.210938 -9.582031 1.515625 -10.0625 C 1.828125 -10.539062 2.300781 -10.921875 2.9375 -11.203125 C 3.570312 -11.492188 4.363281 -11.640625 5.3125 -11.640625 C 5.96875 -11.640625 6.609375 -11.546875 7.234375 -11.359375 C 7.867188 -11.179688 8.421875 -10.929688 8.890625 -10.609375 L 8.46875 -9.640625 C 7.988281 -9.960938 7.472656 -10.203125 6.921875 -10.359375 C 6.367188 -10.515625 5.832031 -10.59375 5.3125 -10.59375 C 4.300781 -10.59375 3.539062 -10.394531 3.03125 -10 C 2.519531 -9.613281 2.265625 -9.113281 2.265625 -8.5 C 2.265625 -8.039062 2.398438 -7.671875 2.671875 -7.390625 C 2.953125 -7.109375 3.304688 -6.894531 3.734375 -6.75 C 4.160156 -6.601562 4.726562 -6.441406 5.4375 -6.265625 C 6.28125 -6.054688 6.960938 -5.847656 7.484375 -5.640625 C 8.015625 -5.441406 8.457031 -5.132812 8.8125 -4.71875 C 9.175781 -4.3125 9.359375 -3.753906 9.359375 -3.046875 C 9.359375 -2.460938 9.203125 -1.929688 8.890625 -1.453125 C 8.578125 -0.972656 8.097656 -0.59375 7.453125 -0.3125 C 6.804688 -0.0390625 6.007812 0.09375 5.0625 0.09375 Z M 5.0625 0.09375 "/></g></g></g><g fill="#0077b6" fill-opacity="1"><g transform="translate(141.956098, 28.265257)"><g/></g></g><g fill="#0077b6" fill-opacity="1"><g transform="translate(148.131879, 28.265257)"><g/></g></g><g fill="#0077b6" fill-opacity="1"><g transform="translate(148.131879, 28.265257)"><g><path d="M 16.484375 -15.265625 L 9.875 0 L 6.390625 0 L -0.203125 -15.265625 L 3.625 -15.265625 L 8.265625 -4.359375 L 12.96875 -15.265625 Z M 16.484375 -15.265625 "/></g></g></g><g fill="#0077b6" fill-opacity="1"><g transform="translate(164.383554, 28.265257)"><g><path d="M 11.859375 -3.265625 L 4.78125 -3.265625 L 3.421875 0 L -0.203125 0 L 6.609375 -15.265625 L 10.09375 -15.265625 L 16.921875 0 L 13.203125 0 Z M 10.75 -5.953125 L 8.328125 -11.796875 L 5.90625 -5.953125 Z M 10.75 -5.953125 "/></g></g></g><g fill="#0077b6" fill-opacity="1"><g transform="translate(181.070927, 28.265257)"><g><path d="M 1.8125 -15.265625 L 5.34375 -15.265625 L 5.34375 -2.875 L 12.984375 -2.875 L 12.984375 0 L 1.8125 0 Z M 1.8125 -15.265625 "/></g></g></g><g fill="#0077b6" fill-opacity="1"><g transform="translate(194.229114, 28.265257)"><g><path d="M 1.8125 -15.265625 L 5.34375 -15.265625 L 5.34375 -2.875 L 12.984375 -2.875 L 12.984375 0 L 1.8125 0 Z M 1.8125 -15.265625 "/></g></g></g><g fill="#0077b6" fill-opacity="1"><g transform="translate(207.387301, 28.265257)"><g><path d="M 13.625 -2.828125 L 13.625 0 L 1.8125 0 L 1.8125 -15.265625 L 13.34375 -15.265625 L 13.34375 -12.421875 L 5.3125 -12.421875 L 5.3125 -9.109375 L 12.40625 -9.109375 L 12.40625 -6.359375 L 5.3125 -6.359375 L 5.3125 -2.828125 Z M 13.625 -2.828125 "/></g></g></g><g fill="#0077b6" fill-opacity="1"><g transform="translate(222.005091, 28.265257)"><g><path d="M 9.140625 -5.40625 L 9.140625 0 L 5.609375 0 L 5.609375 -5.453125 L -0.3125 -15.265625 L 3.4375 -15.265625 L 7.515625 -8.484375 L 11.59375 -15.265625 L 15.0625 -15.265625 Z M 9.140625 -5.40625 "/></g></g></g><g fill="#0077b6" fill-opacity="1"><g transform="translate(236.737344, 28.265257)"><g/></g></g></svg>